<?xml version="1.0" standalone="no"?>
<!DOCTYPE svg PUBLIC "-//W3C//DTD SVG 20010904//EN"
 "http://www.w3.org/TR/2001/REC-SVG-20010904/DTD/svg10.dtd">
<svg version="1.0" xmlns="http://www.w3.org/2000/svg"
 width="1317.000000pt" height="941.000000pt" viewBox="0 0 1317.000000 941.000000"
 preserveAspectRatio="xMidYMid meet">

<g transform="translate(0.000000,941.000000) scale(0.100000,-0.100000)"
fill="#000000" stroke="none">
<path d="M7459 9285 c-61 -33 -41 -106 33 -125 60 -15 73 -23 76 -54 3 -21 -2
-28 -25 -37 -26 -10 -46 -8 -100 7 -17 5 -23 2 -23 -9 0 -20 22 -27 90 -27 51
0 61 3 79 26 12 15 21 34 21 44 0 31 -39 69 -78 76 -51 9 -72 22 -72 43 0 32
26 44 80 38 38 -5 50 -3 50 7 0 27 -88 34 -131 11z"/>
<path d="M7650 9170 l0 -130 85 0 c69 0 85 3 85 15 0 12 -14 15 -65 15 l-65 0
0 115 c0 108 -1 115 -20 115 -19 0 -20 -7 -20 -130z"/>
<path d="M7770 9285 c0 -11 12 -15 45 -15 l45 0 0 -115 c0 -108 1 -115 20
-115 19 0 20 7 20 115 l0 115 45 0 c33 0 45 4 45 15 0 12 -19 15 -110 15 -91
0 -110 -3 -110 -15z"/>
<path d="M8178 9284 c-38 -20 -58 -63 -58 -125 0 -45 4 -55 34 -85 29 -29 41
-34 83 -34 58 0 90 19 109 66 51 122 -59 238 -168 178z m117 -39 c20 -19 25
-34 25 -75 0 -44 -4 -56 -30 -82 -26 -25 -36 -29 -62 -24 -43 8 -56 22 -69 68
-11 44 -1 88 28 120 24 27 78 23 108 -7z"/>
<path d="M9160 9298 c0 -2 -22 -61 -49 -131 -44 -112 -47 -127 -31 -127 12 0
22 12 30 35 l12 36 61 -3 c60 -3 62 -4 71 -35 6 -23 15 -33 28 -33 23 0 24 -6
-35 145 -35 90 -47 111 -65 113 -12 2 -22 2 -22 0z m49 -100 l21 -58 -46 0
c-43 0 -46 1 -40 23 8 32 37 100 40 96 2 -2 13 -30 25 -61z"/>
<path d="M9355 9275 c-28 -28 -32 -66 -9 -89 8 -9 39 -23 69 -31 65 -19 81
-48 44 -78 -23 -18 -67 -19 -113 -1 -10 4 -16 1 -16 -9 0 -20 22 -27 84 -27
69 0 96 19 96 69 0 46 -11 56 -81 79 -57 18 -72 40 -48 69 10 12 26 14 66 10
40 -4 53 -2 53 8 0 15 -31 25 -83 25 -27 0 -45 -7 -62 -25z"/>
<path d="M9570 9170 l0 -130 80 0 c64 0 80 3 80 15 0 12 -13 15 -60 15 l-60 0
0 115 c0 108 -1 115 -20 115 -19 0 -20 -7 -20 -130z"/>
<path d="M8410 9105 c0 -128 1 -135 20 -135 17 0 20 7 20 47 0 37 3 44 12 35
7 -7 29 -12 50 -12 32 0 41 5 59 33 53 85 -21 200 -102 157 -13 -7 -19 -7 -19
0 0 5 -9 10 -20 10 -19 0 -20 -7 -20 -135z m130 86 c15 -30 12 -92 -7 -113
-35 -39 -83 -8 -83 54 0 55 15 78 50 78 19 0 33 -7 40 -19z"/>
<path d="M8659 9211 c-33 -34 -39 -83 -14 -131 17 -34 42 -43 106 -38 32 2 45
8 47 21 3 15 0 16 -23 7 -41 -16 -64 -12 -90 15 -39 38 -32 45 50 45 l75 0 0
29 c0 16 -10 39 -25 55 -34 37 -87 36 -126 -3z m105 -17 c27 -27 18 -34 -45
-34 -61 0 -63 2 -36 38 13 17 62 15 81 -4z"/>
<path d="M8860 9140 c0 -93 1 -100 20 -100 18 0 20 7 20 74 0 82 11 100 57 94
28 -3 28 -3 31 -85 3 -76 4 -83 23 -83 20 0 21 5 18 79 -3 60 -9 84 -23 100
-21 23 -56 27 -87 11 -13 -7 -19 -7 -19 0 0 5 -9 10 -20 10 -19 0 -20 -7 -20
-100z"/>
<path d="M7977 9143 c-17 -16 -3 -23 43 -23 38 0 50 4 50 15 0 11 -11 15 -43
15 -24 0 -47 -3 -50 -7z"/>
<path d="M7430 8771 l0 -131 69 0 c54 0 74 4 95 21 32 25 35 70 7 98 -17 17
-18 21 -5 32 18 15 18 60 0 84 -11 16 -30 20 -90 23 l-76 4 0 -131z m138 65
c4 -35 -10 -46 -60 -46 -38 0 -38 0 -38 41 l0 40 48 -3 c44 -3 47 -5 50 -32z
m-4 -82 c19 -7 21 -55 4 -72 -7 -7 -31 -12 -55 -12 l-43 0 0 45 0 45 39 0 c22
0 46 -3 55 -6z"/>
<path d="M7670 8770 l0 -130 86 0 c64 0 85 3 82 13 -3 7 -28 13 -66 15 l-62 3
0 114 c0 108 -1 115 -20 115 -19 0 -20 -7 -20 -130z"/>
<path d="M7870 8770 l0 -130 85 0 c69 0 85 3 85 15 0 12 -14 15 -65 15 l-65 0
0 45 0 45 60 0 c47 0 60 3 60 15 0 12 -13 15 -60 15 l-60 0 0 40 0 40 65 0
c51 0 65 3 65 15 0 12 -16 15 -85 15 l-85 0 0 -130z"/>
<path d="M8100 8795 c0 -99 2 -107 25 -130 19 -20 34 -25 72 -25 84 1 103 33
103 171 0 82 -1 89 -20 89 -19 0 -20 -7 -20 -100 0 -87 -3 -103 -20 -120 -23
-23 -58 -26 -86 -6 -16 12 -19 29 -22 120 -3 83 -7 106 -18 106 -11 0 -14 -21
-14 -105z"/>
<path d="M2889 8645 c-61 -33 -41 -106 33 -125 60 -15 73 -23 76 -54 3 -21 -2
-28 -25 -37 -26 -10 -46 -8 -100 7 -17 5 -23 2 -23 -9 0 -20 22 -27 90 -27 51
0 61 3 79 26 12 15 21 34 21 44 0 31 -39 69 -78 76 -51 9 -72 22 -72 43 0 32
26 44 80 38 38 -5 50 -3 50 7 0 27 -88 34 -131 11z"/>
<path d="M3080 8530 l0 -130 85 0 c69 0 85 3 85 15 0 12 -14 15 -65 15 l-65 0
0 115 c0 108 -1 115 -20 115 -19 0 -20 -7 -20 -130z"/>
<path d="M3200 8645 c0 -11 12 -15 45 -15 l45 0 0 -115 c0 -108 1 -115 20
-115 19 0 20 7 20 115 l0 115 45 0 c33 0 45 4 45 15 0 12 -19 15 -110 15 -91
0 -110 -3 -110 -15z"/>
<path d="M3550 8530 c0 -123 1 -130 20 -130 18 0 20 7 20 60 l0 60 50 0 c38 0
50 4 50 15 0 11 -12 15 -50 15 l-50 0 0 40 0 40 55 0 c42 0 55 3 55 15 0 12
-15 15 -75 15 l-75 0 0 -130z"/>
<path d="M3760 8530 l0 -130 80 0 c64 0 80 3 80 15 0 12 -14 15 -65 15 l-65 0
0 115 c0 96 -3 115 -15 115 -13 0 -15 -21 -15 -130z"/>
<path d="M3960 8530 l0 -130 85 0 c69 0 85 3 85 15 0 12 -14 15 -65 15 l-65 0
0 45 0 45 60 0 c47 0 60 3 60 15 0 12 -13 15 -60 15 l-60 0 0 40 0 39 62 3
c38 2 63 8 66 16 3 9 -18 12 -82 12 l-86 0 0 -130z"/>
<path d="M4182 8556 c3 -94 6 -108 27 -130 20 -21 34 -26 76 -26 42 0 56 5 74
24 20 21 24 38 28 130 6 102 5 106 -15 106 -19 0 -20 -7 -24 -106 -3 -91 -6
-108 -22 -120 -28 -20 -63 -17 -86 6 -17 17 -20 33 -20 120 0 95 -1 100 -21
100 -21 0 -21 -4 -17 -104z"/>
<path d="M4450 8530 c0 -123 1 -130 20 -130 18 0 20 7 20 55 0 54 0 55 29 55
34 0 54 -17 82 -71 10 -21 26 -39 34 -39 8 0 15 2 15 5 0 12 -50 104 -61 110
-7 5 -3 12 10 22 14 9 21 25 21 48 0 50 -37 75 -111 75 l-59 0 0 -130z m114
94 c10 -4 16 -18 16 -39 0 -36 -13 -45 -61 -45 -28 0 -29 2 -29 45 0 43 1 45
29 45 16 0 36 -3 45 -6z"/>
<path d="M4715 8635 c-28 -28 -32 -66 -9 -89 8 -9 39 -23 69 -31 65 -19 81
-48 44 -78 -23 -18 -67 -19 -113 -1 -10 4 -16 1 -16 -9 0 -20 22 -27 84 -27
69 0 96 19 96 69 0 46 -11 56 -81 79 -57 18 -72 40 -48 69 10 12 26 14 66 10
40 -4 53 -2 53 8 0 15 -31 25 -83 25 -27 0 -45 -7 -62 -25z"/>
<path d="M3407 8503 c-17 -16 -3 -23 43 -23 38 0 50 4 50 15 0 11 -11 15 -43
15 -24 0 -47 -3 -50 -7z"/>
<path d="M7318 8323 c-10 -2 -18 -10 -18 -18 0 -10 7 -11 35 -3 26 9 38 8 50
-2 26 -22 17 -49 -35 -104 -27 -29 -50 -58 -50 -64 0 -8 23 -12 65 -12 74 0
89 17 19 22 l-45 3 45 53 c25 30 46 62 46 73 0 43 -53 68 -112 52z"/>
<path d="M7493 8323 c-28 -11 -11 -23 25 -17 28 4 41 2 51 -10 18 -21 -2 -46
-35 -46 -13 0 -24 -4 -24 -10 0 -5 10 -10 23 -10 29 0 47 -18 47 -47 0 -29
-33 -46 -72 -38 -23 6 -29 4 -26 -6 7 -20 75 -23 104 -4 28 18 33 65 9 85 -13
11 -13 15 0 33 19 28 19 33 -5 57 -19 19 -67 26 -97 13z"/>
<path d="M7758 8323 c-10 -2 -18 -10 -18 -18 0 -10 7 -11 35 -3 26 9 38 8 50
-2 26 -22 17 -49 -35 -104 -27 -29 -50 -58 -50 -64 0 -8 23 -12 65 -12 37 0
65 4 65 10 0 6 -20 10 -46 10 l-45 0 45 56 c26 31 46 64 46 75 0 43 -53 68
-112 52z"/>
<path d="M4000 8131 l0 -131 69 0 c54 0 74 4 95 21 32 25 35 70 7 98 -17 17
-18 21 -5 32 18 15 18 60 0 84 -11 16 -30 20 -90 23 l-76 4 0 -131z m138 65
c4 -35 -10 -46 -60 -46 -38 0 -38 0 -38 41 l0 40 48 -3 c44 -3 47 -5 50 -32z
m-4 -82 c19 -7 21 -55 4 -72 -7 -7 -31 -12 -55 -12 l-43 0 0 45 0 45 39 0 c22
0 46 -3 55 -6z"/>
<path d="M4240 8130 l0 -130 86 0 c64 0 85 3 82 13 -3 7 -28 13 -66 15 l-62 3
0 114 c0 108 -1 115 -20 115 -19 0 -20 -7 -20 -130z"/>
<path d="M4440 8130 l0 -130 85 0 c69 0 85 3 85 15 0 12 -14 15 -65 15 l-65 0
0 45 0 45 60 0 c47 0 60 3 60 15 0 12 -13 15 -60 15 l-60 0 0 40 0 40 65 0
c51 0 65 3 65 15 0 12 -16 15 -85 15 l-85 0 0 -130z"/>
<path d="M4670 8155 c0 -99 2 -107 25 -130 19 -20 34 -25 72 -25 84 1 103 33
103 171 0 82 -1 89 -20 89 -19 0 -20 -7 -20 -100 0 -87 -3 -103 -20 -120 -23
-23 -58 -26 -86 -6 -16 12 -19 29 -22 120 -3 83 -7 106 -18 106 -11 0 -14 -21
-14 -105z"/>
<path d="M7660 8140 c0 -11 7 -20 15 -20 8 0 15 9 15 20 0 11 -7 20 -15 20 -8
0 -15 -9 -15 -20z"/>
<path d="M6510 8109 c-266 -21 -623 -104 -844 -195 -16 -6 -18 -4 -13 9 4 9
10 24 13 32 5 12 -5 15 -60 15 -37 0 -66 -4 -66 -10 0 -5 20 -10 45 -10 45 0
50 -5 39 -35 -7 -18 -212 -118 -228 -111 -6 2 -3 5 7 5 21 1 23 17 2 25 -11 4
-15 22 -15 71 0 55 -3 65 -17 65 -18 -1 -103 -125 -103 -149 0 -6 18 -11 45
-11 72 0 60 -27 -37 -80 -496 -272 -917 -710 -1198 -1245 -35 -66 -77 -140
-94 -165 -18 -26 -31 -59 -32 -80 -1 -19 -20 -89 -43 -155 -54 -152 -104 -357
-133 -538 -20 -124 -23 -179 -23 -432 0 -301 4 -352 51 -596 88 -459 313 -936
620 -1316 371 -457 918 -818 1488 -982 305 -87 508 -115 841 -115 269 0 405
13 625 60 63 14 140 30 170 37 30 6 57 14 60 18 3 3 15 8 28 11 15 4 22 2 22
-8 0 -8 7 -14 15 -14 8 0 15 8 15 19 0 13 18 25 71 44 72 27 89 27 89 2 0 -29
-32 -47 -72 -41 -38 6 -53 -6 -22 -18 64 -25 140 25 114 74 -9 16 -7 22 7 27
52 18 247 111 327 155 130 71 328 205 446 300 121 97 301 272 394 383 58 68
71 79 95 77 47 -5 73 26 79 94 3 42 12 70 32 99 467 682 628 1581 430 2393
-168 687 -558 1278 -1125 1702 -584 438 -1312 647 -2045 589z m481 -20 c154
-13 221 -23 199 -32 -23 -9 -1571 -278 -1580 -275 -4 2 1 26 12 55 l20 52 167
55 c398 130 784 178 1182 145z m1169 -544 c481 -278 880 -513 887 -522 18 -28
693 -1890 693 -1914 0 -11 -134 -388 -297 -837 -263 -723 -301 -821 -330 -848
-31 -29 -33 -36 -33 -95 0 -40 -7 -79 -19 -104 l-18 -40 -719 -219 c-790 -241
-769 -234 -761 -242 2 -3 330 94 727 216 397 122 724 219 727 216 9 -9 -281
-291 -385 -374 -157 -126 -358 -254 -541 -345 -91 -46 -180 -88 -198 -95 -32
-10 -32 -10 -27 16 8 39 -23 64 -72 60 -20 -2 -39 -9 -42 -17 -3 -9 2 -11 18
-6 12 4 33 4 46 1 36 -9 30 -50 -8 -54 -34 -4 -37 -19 -5 -24 13 -2 -28 -20
-103 -44 -69 -23 -128 -40 -132 -37 -5 2 -8 44 -8 94 0 81 -2 89 -19 89 -26 0
-51 -10 -51 -21 0 -5 9 -9 20 -9 18 0 20 -7 20 -80 0 -73 -2 -80 -20 -80 -11
0 -20 -4 -20 -9 0 -11 -96 -35 -245 -60 -357 -60 -769 -51 -1115 26 -259 57
-457 126 -690 241 -140 69 -152 77 -120 79 78 6 1573 83 1612 83 26 0 38 4 32
9 -5 6 -344 -9 -853 -35 l-845 -45 -32 33 c-17 18 -314 371 -660 783 l-629
750 0 1025 0 1025 45 54 c43 51 45 52 48 27 4 -34 32 -35 32 -1 0 16 6 25 15
25 20 0 19 16 0 24 -19 7 -10 28 34 74 49 54 61 45 61 -48 0 -73 -2 -80 -20
-80 -11 0 -20 -4 -20 -10 0 -6 27 -10 60 -10 58 0 84 15 38 22 -22 3 -23 8
-26 95 -2 80 -5 92 -21 95 -14 2 110 156 509 631 290 346 536 638 548 649 17
18 163 46 994 193 535 95 989 173 1008 174 29 1 184 -85 910 -504z m-703 470
c493 -119 945 -361 1326 -709 117 -107 251 -252 207 -224 -14 9 -389 226 -835
483 -445 257 -812 469 -814 471 -9 8 16 3 116 -21z m-2097 -135 c0 -49 -1 -50
-30 -50 -16 0 -30 2 -30 5 0 5 54 95 57 95 2 0 3 -22 3 -50z m240 -25 c0 -25
-35 -84 -53 -89 -41 -11 -57 -7 -57 14 0 11 -7 20 -15 20 -18 0 -20 -37 -3
-42 7 -3 -21 -10 -61 -17 -41 -6 -76 -9 -79 -7 -5 6 237 125 256 126 6 0 12
-2 12 -5z m-407 -208 c-4 -7 -242 -292 -528 -632 -286 -340 -533 -635 -550
-656 -16 -21 -33 -38 -37 -39 -4 0 -8 19 -10 43 -3 35 6 61 50 150 196 392
572 811 970 1078 107 72 118 78 105 56z m4042 -872 c115 -172 181 -291 255
-460 138 -312 229 -675 245 -986 3 -57 8 -117 10 -134 l4 -30 -15 30 c-8 17
-158 426 -333 910 -352 970 -344 938 -166 670z m-5195 -465 c0 -27 -5 -43 -15
-47 -9 -3 -18 -3 -21 0 -5 5 25 87 32 87 2 0 4 -18 4 -40z m-46 -95 c-9 -14
-19 -24 -21 -21 -7 7 16 46 28 46 5 0 2 -11 -7 -25z m-65 -1107 l0 -963 -20
55 c-28 79 -75 267 -98 395 -35 197 -44 332 -38 588 5 249 22 393 67 586 24
102 81 301 86 301 2 0 4 -433 3 -962z m5810 -187 c-33 -512 -198 -1012 -475
-1438 l-53 -83 -26 25 -27 24 282 773 c156 425 287 786 292 801 6 15 11 27 12
25 2 -2 -1 -59 -5 -127z m-5079 -1711 c287 -344 530 -633 539 -644 25 -30 -99
51 -232 150 -378 283 -672 633 -881 1052 -54 107 -116 246 -116 259 0 5 100
-113 690 -817z m4525 183 c6 -16 -33 -80 -63 -105 -13 -11 -15 -9 -9 22 9 58
35 110 51 104 8 -3 17 -13 21 -21z m1 -108 c-6 -22 -41 -43 -53 -32 -3 3 8 22
23 43 29 37 41 33 30 -11z"/>
<path d="M7143 7333 c-7 -2 -13 -11 -13 -19 0 -10 7 -13 25 -8 l26 6 -3 -78
c-3 -73 -5 -79 -25 -82 -47 -7 -21 -22 37 -22 33 0 60 4 60 10 0 6 -9 10 -20
10 -19 0 -20 7 -20 95 l0 95 -27 -1 c-16 0 -34 -3 -40 -6z"/>
<path d="M7317 7322 c-21 -23 -22 -61 -2 -68 12 -5 12 -10 -5 -32 -22 -27 -19
-58 8 -79 22 -18 77 -16 96 3 20 20 21 68 1 84 -13 11 -13 14 0 27 8 8 15 22
15 32 0 46 -81 69 -113 33z m77 -24 c8 -14 7 -21 -6 -34 -30 -30 -75 9 -48 42
16 18 39 15 54 -8z m-10 -74 c21 -8 21 -60 0 -68 -40 -15 -73 19 -54 55 11 20
27 23 54 13z"/>
<path d="M7582 7324 c-29 -20 -30 -74 -2 -99 14 -13 29 -16 55 -12 33 5 36 4
29 -16 -9 -33 -35 -48 -67 -41 -22 5 -28 3 -25 -7 3 -8 20 -15 39 -17 54 -5
84 33 84 108 0 43 -5 63 -19 79 -23 25 -63 27 -94 5z m62 -10 c25 -10 21 -71
-4 -79 -40 -13 -68 43 -38 73 14 14 20 14 42 6z"/>
<path d="M7480 7150 c0 -11 7 -20 15 -20 8 0 15 9 15 20 0 11 -7 20 -15 20 -8
0 -15 -9 -15 -20z"/>
<path d="M5797 7093 c-15 -15 -5 -25 19 -19 36 9 64 -2 64 -25 0 -14 -9 -21
-30 -25 -38 -8 -38 -20 -1 -27 41 -9 51 -44 20 -70 -17 -14 -32 -17 -57 -12
-26 5 -33 3 -30 -7 7 -21 44 -21 87 1 53 27 57 38 32 72 -12 16 -17 29 -11 29
20 0 23 50 5 70 -18 20 -83 28 -98 13z"/>
<path d="M6040 7090 c0 -5 21 -10 46 -10 48 0 48 0 26 -59 -4 -11 -1 -11 15
-2 16 8 43 57 43 77 0 2 -29 4 -65 4 -37 0 -65 -4 -65 -10z"/>
<path d="M6090 6958 c-23 -51 -25 -68 -7 -68 11 0 47 79 47 103 0 22 -23 1
-40 -35z"/>
<path d="M5960 6910 c0 -11 7 -20 15 -20 8 0 15 9 15 20 0 11 -7 20 -15 20 -8
0 -15 -9 -15 -20z"/>
<path d="M8343 6591 c-24 -38 -43 -74 -43 -80 0 -6 19 -11 45 -11 41 0 45 -2
45 -25 0 -16 6 -25 15 -25 9 0 15 9 15 25 0 16 6 25 15 25 8 0 15 7 15 15 0 8
-7 15 -15 15 -12 0 -15 14 -15 65 0 89 -21 88 -77 -4z m47 -21 c0 -49 0 -50
-31 -50 -17 0 -29 3 -27 8 6 14 53 92 56 92 1 0 2 -22 2 -50z"/>
<path d="M8497 6642 c-21 -23 -22 -61 -2 -68 12 -5 12 -10 -5 -32 -22 -27 -19
-58 8 -79 22 -18 77 -16 96 3 20 20 21 68 1 84 -13 11 -13 14 0 27 8 8 15 22
15 32 0 46 -81 69 -113 33z m77 -24 c8 -14 7 -21 -6 -34 -30 -30 -75 9 -48 42
16 18 39 15 54 -8z m-10 -74 c21 -8 21 -60 0 -68 -40 -15 -73 19 -54 55 11 20
27 23 54 13z"/>
<path d="M8762 6644 c-29 -20 -30 -74 -2 -99 14 -13 29 -16 55 -12 33 5 36 4
29 -16 -9 -33 -35 -48 -67 -41 -22 5 -28 3 -25 -7 3 -8 20 -15 40 -17 30 -3
40 2 63 30 24 28 27 38 23 85 -7 83 -58 118 -116 77z m62 -10 c25 -10 21 -71
-4 -79 -40 -13 -68 43 -38 73 14 14 20 14 42 6z"/>
<path d="M8660 6470 c0 -11 7 -20 15 -20 8 0 15 9 15 20 0 11 -7 20 -15 20 -8
0 -15 -9 -15 -20z"/>
<path d="M4403 6393 c-7 -2 -13 -11 -13 -18 0 -10 7 -11 35 -3 26 9 38 8 50
-2 26 -22 17 -49 -35 -104 -27 -29 -50 -58 -50 -64 0 -8 23 -12 65 -12 37 0
65 4 65 10 0 6 -20 10 -45 10 l-45 0 45 55 c50 62 55 85 25 115 -19 19 -67 26
-97 13z"/>
<path d="M6967 6353 c-16 -16 -6 -30 18 -25 l26 5 -3 -79 c-3 -73 -5 -79 -25
-82 -47 -7 -21 -22 37 -22 33 0 60 4 60 10 0 6 -9 10 -20 10 -19 0 -20 7 -20
95 l0 95 -33 0 c-19 0 -37 -3 -40 -7z"/>
<path d="M7161 6294 c-53 -85 -53 -94 4 -94 41 0 45 -2 45 -25 0 -16 6 -25 15
-25 9 0 15 9 15 25 0 16 6 25 15 25 8 0 15 5 15 10 0 6 -7 10 -15 10 -12 0
-15 14 -15 70 0 62 -2 70 -19 70 -12 0 -33 -22 -60 -66z m49 -24 c0 -49 -1
-50 -30 -50 -16 0 -30 3 -30 6 0 8 51 94 56 94 2 0 4 -22 4 -50z"/>
<path d="M7400 6309 c0 -50 1 -51 25 -45 37 10 65 -9 65 -44 0 -36 -29 -54
-72 -45 -23 6 -29 4 -26 -6 7 -20 75 -23 104 -4 19 12 24 24 24 55 0 43 -26
70 -67 70 -18 0 -23 6 -23 25 0 23 4 25 40 25 22 0 40 5 40 10 0 6 -25 10 -55
10 l-55 0 0 -51z"/>
<path d="M6293 6233 c-7 -2 -13 -11 -13 -18 0 -11 6 -12 29 -4 36 13 71 -3 71
-31 0 -10 -22 -43 -50 -73 -27 -30 -50 -60 -50 -66 0 -14 69 -14 90 -1 11 7 7
10 -18 10 l-33 0 45 56 c51 62 56 84 26 114 -19 19 -67 26 -97 13z"/>
<path d="M6550 6230 c0 -5 20 -10 45 -10 25 0 45 -2 45 -4 0 -2 -7 -23 -15
-46 -18 -52 -19 -60 -2 -60 7 0 21 24 31 53 10 28 21 58 23 65 4 9 -12 12 -61
12 -37 0 -66 -4 -66 -10z"/>
<path d="M4310 6210 c0 -11 7 -20 15 -20 8 0 15 9 15 20 0 11 -7 20 -15 20 -8
0 -15 -9 -15 -20z"/>
<path d="M7310 6170 c0 -11 7 -20 15 -20 8 0 15 9 15 20 0 11 -7 20 -15 20 -8
0 -15 -9 -15 -20z"/>
<path d="M6586 6068 c-8 -33 -8 -38 7 -38 7 0 18 14 24 30 10 26 9 30 -7 30
-10 0 -20 -10 -24 -22z"/>
<path d="M6470 6045 c0 -8 7 -15 15 -15 8 0 15 7 15 15 0 8 -7 15 -15 15 -8 0
-15 -7 -15 -15z"/>
<path d="M4917 6043 c-16 -15 -5 -25 21 -18 41 10 51 25 16 25 -17 0 -34 -3
-37 -7z"/>
<path d="M5086 6034 c-53 -52 -8 -130 64 -111 15 4 20 0 20 -14 0 -25 -43 -52
-70 -44 -14 5 -20 2 -20 -9 0 -27 66 -21 95 9 34 33 36 129 5 163 -24 26 -72
29 -94 6z m65 -14 c35 -19 18 -80 -23 -80 -16 0 -38 27 -38 49 0 10 27 41 36
41 3 0 14 -5 25 -10z"/>
<path d="M5353 6043 c-24 -9 -14 -30 12 -25 l25 4 0 -81 c0 -80 0 -81 -25 -81
-14 0 -25 -4 -25 -10 0 -6 27 -10 60 -10 33 0 60 4 60 10 0 6 -9 10 -20 10
-19 0 -20 7 -20 95 l0 95 -27 -1 c-16 0 -34 -3 -40 -6z"/>
<path d="M4996 6012 c5 -24 1 -30 -23 -41 l-28 -14 27 -9 c62 -21 31 -97 -34
-84 -21 4 -28 2 -28 -9 0 -26 77 -19 105 10 30 29 31 35 4 69 -11 14 -16 26
-10 26 17 0 25 48 11 65 -19 23 -30 18 -24 -13z"/>
<path d="M7583 5941 c-24 -38 -43 -74 -43 -80 0 -6 19 -11 45 -11 41 0 45 -2
45 -25 0 -16 6 -25 15 -25 9 0 15 9 15 25 0 16 6 25 15 25 8 0 15 5 15 10 0 6
-7 13 -15 16 -11 5 -15 22 -15 70 0 88 -21 87 -77 -5z m47 -21 c0 -49 0 -50
-31 -50 -17 0 -29 3 -27 8 6 14 53 92 56 92 1 0 2 -22 2 -50z"/>
<path d="M7720 6000 c0 -5 20 -10 45 -10 25 0 45 -4 45 -9 0 -6 -13 -45 -30
-88 -34 -89 -35 -93 -16 -93 8 0 28 39 50 101 20 55 36 102 36 105 0 2 -29 4
-65 4 -37 0 -65 -4 -65 -10z"/>
<path d="M8002 5994 c-29 -20 -30 -74 -2 -99 14 -13 29 -16 55 -12 33 5 36 4
29 -16 -9 -33 -35 -48 -67 -41 -22 5 -28 3 -25 -7 3 -8 20 -15 39 -17 54 -5
84 33 84 108 0 43 -5 63 -19 79 -23 25 -63 27 -94 5z m62 -10 c25 -10 21 -71
-4 -79 -40 -13 -68 43 -38 73 14 14 20 14 42 6z"/>
<path d="M5250 5860 c0 -11 7 -20 15 -20 8 0 15 9 15 20 0 11 -7 20 -15 20 -8
0 -15 -9 -15 -20z"/>
<path d="M7900 5820 c0 -11 7 -20 15 -20 8 0 15 9 15 20 0 11 -7 20 -15 20 -8
0 -15 -9 -15 -20z"/>
<path d="M5857 5703 c-16 -15 -4 -21 35 -18 55 4 63 25 11 25 -22 0 -43 -3
-46 -7z"/>
<path d="M6010 5700 c0 -5 20 -10 45 -10 25 0 45 -4 45 -9 0 -6 -13 -45 -30
-88 -34 -89 -35 -93 -16 -93 8 0 28 39 50 101 20 55 36 102 36 105 0 2 -29 4
-65 4 -37 0 -65 -4 -65 -10z"/>
<path d="M6293 5703 c-24 -9 -14 -30 12 -25 l25 4 0 -81 c0 -80 0 -81 -25 -81
-14 0 -25 -4 -25 -10 0 -6 27 -10 60 -10 33 0 60 4 60 10 0 6 -9 10 -20 10
-19 0 -20 7 -20 95 l0 95 -27 -1 c-16 0 -34 -3 -40 -6z"/>
<path d="M5946 5683 c-3 -3 -6 -13 -6 -21 0 -7 -10 -22 -22 -32 l-22 -17 22
-7 c11 -4 24 -17 28 -28 9 -30 -30 -62 -68 -54 -21 4 -28 2 -28 -9 0 -26 77
-19 105 10 30 29 31 36 6 66 -16 19 -16 25 -5 37 8 7 14 22 14 32 0 20 -13 33
-24 23z"/>
<path d="M6190 5520 c0 -11 7 -20 15 -20 8 0 15 9 15 20 0 11 -7 20 -15 20 -8
0 -15 -9 -15 -20z"/>
<path d="M7803 5363 c-25 -9 -14 -30 12 -25 l26 5 -3 -79 c-3 -73 -5 -79 -25
-82 -47 -7 -21 -22 37 -22 33 0 60 4 60 10 0 6 -9 10 -20 10 -19 0 -20 7 -20
95 l0 95 -27 -1 c-16 0 -34 -3 -40 -6z"/>
<path d="M7991 5304 c-53 -85 -53 -94 4 -94 41 0 45 -2 45 -25 0 -16 6 -25 15
-25 9 0 15 9 15 25 0 16 6 25 15 25 8 0 15 5 15 10 0 6 -7 10 -15 10 -12 0
-15 14 -15 70 0 62 -2 70 -19 70 -12 0 -33 -22 -60 -66z m49 -24 c0 -49 -1
-50 -30 -50 -16 0 -30 3 -30 6 0 8 51 94 56 94 2 0 4 -22 4 -50z"/>
<path d="M8233 5363 c-7 -2 -13 -11 -13 -19 0 -17 2 -17 33 -3 31 14 67 -3 67
-32 0 -11 -22 -44 -50 -73 -27 -29 -50 -58 -50 -64 0 -8 23 -12 65 -12 37 0
65 4 65 10 0 6 -21 10 -47 10 l-47 0 31 33 c67 71 77 103 43 137 -19 19 -67
26 -97 13z"/>
<path d="M8803 5363 c-25 -9 -14 -30 12 -25 l26 5 -3 -79 c-3 -73 -5 -79 -25
-82 -47 -7 -21 -22 37 -22 33 0 60 4 60 10 0 6 -9 10 -20 10 -19 0 -20 7 -20
95 l0 95 -27 -1 c-16 0 -34 -3 -40 -6z"/>
<path d="M8970 5320 c0 -50 0 -50 28 -44 37 9 40 14 14 21 -26 6 -32 53 -6 53
8 0 12 5 9 10 -3 6 -15 10 -26 10 -16 0 -19 -7 -19 -50z"/>
<path d="M9030 5360 c0 -5 9 -10 20 -10 11 0 20 5 20 10 0 6 -9 10 -20 10 -11
0 -20 -4 -20 -10z"/>
<path d="M9233 5363 c-7 -2 -13 -11 -13 -18 0 -10 7 -11 35 -3 26 9 38 8 50
-2 26 -22 17 -49 -35 -104 -27 -29 -50 -58 -50 -64 0 -8 23 -12 65 -12 37 0
65 4 65 10 0 6 -20 10 -45 10 l-45 0 45 55 c50 62 55 85 25 115 -19 19 -67 26
-97 13z"/>
<path d="M9045 5280 c5 -14 8 -45 7 -69 -1 -43 -1 -43 18 -26 28 26 25 67 -6
96 l-27 24 8 -25z"/>
<path d="M8140 5180 c0 -11 7 -20 15 -20 8 0 15 9 15 20 0 11 -7 20 -15 20 -8
0 -15 -9 -15 -20z"/>
<path d="M9140 5180 c0 -11 7 -20 15 -20 8 0 15 9 15 20 0 11 -7 20 -15 20 -8
0 -15 -9 -15 -20z"/>
<path d="M8963 5177 c5 -17 77 -22 77 -5 0 8 -15 14 -41 15 -26 1 -39 -3 -36
-10z"/>
<path d="M5861 5004 c-15 -19 -21 -41 -21 -79 0 -64 27 -105 69 -105 46 0 66
32 66 105 0 48 -5 68 -19 84 -27 30 -70 27 -95 -5z m73 -16 c29 -41 11 -148
-24 -148 -24 0 -40 34 -40 85 0 76 33 108 64 63z"/>
<path d="M6131 4965 c-54 -84 -53 -95 4 -95 41 0 45 -2 45 -25 0 -16 6 -25 15
-25 9 0 15 9 15 25 0 16 6 25 15 25 8 0 15 5 15 10 0 6 -7 10 -15 10 -12 0
-15 14 -15 70 0 62 -2 70 -19 70 -13 0 -33 -22 -60 -65z m49 -14 c0 -44 -2
-49 -26 -55 -15 -4 -29 -5 -31 -2 -4 4 48 106 55 106 1 0 2 -22 2 -49z"/>
<path d="M6015 4850 c-8 -14 3 -30 21 -30 8 0 14 9 14 20 0 21 -24 28 -35 10z"/>
<path d="M7571 4704 c-34 -43 -26 -150 13 -176 21 -15 63 -8 82 13 14 16 19
36 19 84 0 48 -5 68 -19 84 -27 30 -70 27 -95 -5z m73 -16 c29 -41 11 -148
-24 -148 -24 0 -40 34 -40 85 0 76 33 108 64 63z"/>
<path d="M7823 4723 c-7 -2 -13 -11 -13 -18 0 -11 6 -12 30 -3 23 7 34 7 45
-2 26 -21 17 -50 -35 -109 -27 -32 -50 -61 -50 -64 0 -4 29 -7 65 -7 37 0 65
4 65 10 0 6 -21 10 -46 10 l-47 0 47 50 c51 54 60 94 28 123 -18 16 -63 21
-89 10z"/>
<path d="M4931 4664 c-15 -19 -21 -41 -21 -79 0 -64 27 -105 69 -105 46 0 66
32 66 105 0 48 -5 68 -19 84 -27 30 -70 27 -95 -5z m73 -16 c29 -41 11 -148
-24 -148 -24 0 -40 34 -40 85 0 76 33 108 64 63z"/>
<path d="M5170 4639 l0 -51 31 7 c22 5 36 2 50 -11 41 -37 6 -91 -52 -79 -24
5 -30 4 -27 -6 3 -8 22 -15 45 -17 34 -3 44 1 62 24 11 15 21 37 21 49 0 29
-40 65 -73 65 -22 0 -27 5 -27 25 0 23 4 25 40 25 22 0 40 5 40 10 0 6 -25 10
-55 10 l-55 0 0 -51z"/>
<path d="M7730 4540 c0 -11 7 -20 15 -20 8 0 15 9 15 20 0 11 -7 20 -15 20 -8
0 -15 -9 -15 -20z"/>
<path d="M5085 4510 c-8 -14 3 -30 21 -30 8 0 14 9 14 20 0 21 -24 28 -35 10z"/>
<path d="M6301 4474 c-15 -19 -21 -41 -21 -79 0 -64 27 -105 69 -105 46 0 66
32 66 105 0 48 -5 68 -19 84 -27 30 -70 27 -95 -5z m73 -16 c29 -41 11 -148
-24 -148 -24 0 -40 34 -40 85 0 76 33 108 64 63z"/>
<path d="M6553 4493 c-7 -2 -13 -11 -13 -18 0 -11 6 -12 30 -3 23 7 34 7 45
-2 26 -21 17 -50 -35 -109 -27 -32 -50 -61 -50 -64 0 -4 29 -7 65 -7 37 0 65
4 65 10 0 6 -21 10 -46 10 l-47 0 47 50 c51 54 60 94 28 123 -18 16 -63 21
-89 10z"/>
<path d="M6983 4321 c-24 -38 -43 -74 -43 -80 0 -6 19 -11 45 -11 41 0 45 -2
45 -25 0 -16 6 -25 15 -25 9 0 15 9 15 25 0 16 6 25 15 25 8 0 15 4 15 9 0 5
-7 11 -15 15 -11 4 -15 22 -15 71 0 89 -21 88 -77 -4z m47 -21 c0 -49 0 -50
-31 -50 -17 0 -29 3 -27 8 6 14 53 92 56 92 1 0 2 -22 2 -50z"/>
<path d="M7120 4380 c0 -5 20 -10 45 -10 25 0 45 -4 45 -9 0 -6 -13 -44 -29
-85 -29 -74 -29 -84 -3 -68 10 7 72 159 72 177 0 3 -29 5 -65 5 -37 0 -65 -4
-65 -10z"/>
<path d="M7401 4381 c-7 -5 -12 -14 -9 -21 2 -8 11 -5 28 9 17 14 20 20 10 21
-8 0 -21 -4 -29 -9z"/>
<path d="M7444 4379 c-4 -7 -6 -49 -5 -95 2 -84 2 -84 -23 -84 -14 0 -26 -4
-26 -10 0 -6 27 -10 60 -10 33 0 60 4 60 10 0 6 -9 10 -20 10 -19 0 -20 7 -20
95 0 87 -8 113 -26 84z"/>
<path d="M3991 4314 c-15 -19 -21 -41 -21 -79 0 -95 70 -141 120 -77 18 22 21
37 18 84 -5 66 -27 98 -69 98 -18 0 -35 -9 -48 -26z m73 -16 c29 -41 11 -148
-24 -148 -24 0 -40 34 -40 85 0 76 33 108 64 63z"/>
<path d="M4263 4325 c-48 -34 -50 -160 -3 -185 62 -33 122 21 99 90 -12 32
-43 47 -79 37 -25 -6 -27 15 -3 38 11 11 26 15 45 11 21 -4 28 -2 28 9 0 20
-59 20 -87 0z m54 -83 c12 -8 18 -31 15 -64 -2 -22 -39 -33 -57 -18 -18 15
-20 61 -3 78 14 14 28 15 45 4z"/>
<path d="M6460 4310 c0 -11 7 -20 15 -20 8 0 15 9 15 20 0 11 -7 20 -15 20 -8
0 -15 -9 -15 -20z"/>
<path d="M7300 4200 c0 -11 7 -20 15 -20 8 0 15 9 15 20 0 11 -7 20 -15 20 -8
0 -15 -9 -15 -20z"/>
<path d="M7160 4190 c-13 -8 -12 -10 3 -10 9 0 17 5 17 10 0 12 -1 12 -20 0z"/>
<path d="M4140 4150 c0 -13 7 -20 20 -20 13 0 20 7 20 20 0 13 -7 20 -20 20
-13 0 -20 -7 -20 -20z"/>
<path d="M8341 4064 c-34 -43 -26 -150 13 -176 21 -15 63 -8 82 13 14 16 19
36 19 84 0 48 -5 68 -19 84 -27 30 -70 27 -95 -5z m73 -16 c29 -41 11 -148
-24 -148 -24 0 -40 34 -40 85 0 76 33 108 64 63z"/>
<path d="M8587 4083 c-16 -15 -5 -23 26 -18 43 8 78 -15 58 -39 -7 -9 -24 -16
-37 -16 -34 0 -30 -14 9 -25 24 -8 33 -16 35 -37 4 -34 -26 -52 -70 -43 -23 6
-29 4 -26 -6 3 -8 22 -15 46 -17 31 -2 46 2 61 17 25 25 27 63 6 81 -13 10
-13 15 -1 32 27 39 -6 78 -64 78 -20 0 -40 -3 -43 -7z"/>
<path d="M8500 3900 c0 -11 7 -20 15 -20 8 0 15 9 15 20 0 11 -7 20 -15 20 -8
0 -15 -9 -15 -20z"/>
<path d="M5801 3614 c-15 -19 -21 -41 -21 -79 0 -64 27 -105 69 -105 46 0 66
32 66 105 0 48 -5 68 -19 84 -27 30 -70 27 -95 -5z m73 -16 c29 -41 11 -148
-24 -148 -24 0 -40 34 -40 85 0 76 33 108 64 63z"/>
<path d="M6071 3575 c-54 -84 -53 -95 4 -95 41 0 45 -2 45 -25 0 -16 6 -25 15
-25 9 0 15 9 15 25 0 16 6 25 15 25 8 0 15 5 15 10 0 6 -7 10 -15 10 -12 0
-15 14 -15 70 0 62 -2 70 -19 70 -13 0 -33 -22 -60 -65z m49 -20 c0 -54 0 -55
-30 -55 -16 0 -30 4 -30 9 0 9 52 100 58 101 1 0 2 -25 2 -55z"/>
<path d="M5960 3450 c0 -11 7 -20 15 -20 8 0 15 9 15 20 0 11 -7 20 -15 20 -8
0 -15 -9 -15 -20z"/>
<path d="M7130 3349 c0 -50 1 -51 25 -45 37 10 65 -9 65 -44 0 -36 -29 -54
-72 -45 -23 6 -29 4 -26 -6 7 -20 75 -23 104 -4 19 12 24 24 24 55 0 43 -26
70 -67 70 -18 0 -23 6 -23 25 0 23 4 25 40 25 22 0 40 5 40 10 0 6 -25 10 -55
10 l-55 0 0 -51z"/>
<path d="M7321 3334 c-53 -85 -53 -94 4 -94 44 0 52 -7 46 -42 0 -5 6 -8 14
-8 9 0 15 6 14 13 -3 26 2 37 16 37 8 0 15 5 15 10 0 6 -7 10 -15 10 -12 0
-15 14 -15 70 0 62 -2 70 -19 70 -12 0 -33 -22 -60 -66z m49 -24 c0 -49 -1
-50 -30 -50 -16 0 -30 3 -30 6 0 8 51 94 56 94 2 0 4 -22 4 -50z"/>
<path d="M7563 3393 c-7 -2 -13 -11 -13 -19 0 -17 2 -17 33 -3 28 13 67 -2 67
-26 0 -8 4 -15 9 -15 5 0 -17 -25 -50 -57 -32 -31 -59 -62 -59 -70 0 -9 17
-13 65 -13 37 0 65 4 65 10 0 6 -21 10 -47 10 l-47 0 30 33 c65 70 76 105 44
137 -19 19 -67 26 -97 13z"/>
<path d="M7470 3210 c0 -11 7 -20 15 -20 8 0 15 9 15 20 0 11 -7 20 -15 20 -8
0 -15 -9 -15 -20z"/>
<path d="M5301 2744 c-15 -19 -21 -41 -21 -79 0 -64 27 -105 69 -105 46 0 66
32 66 105 0 48 -5 68 -19 84 -27 30 -70 27 -95 -5z m73 -16 c29 -41 11 -148
-24 -148 -24 0 -40 34 -40 85 0 76 33 108 64 63z"/>
<path d="M5540 2720 l0 -51 33 6 c25 5 39 2 50 -10 39 -39 6 -91 -51 -80 -26
5 -33 3 -30 -7 3 -7 23 -14 45 -16 34 -3 44 1 62 24 26 34 27 54 0 88 -14 17
-30 26 -50 26 -24 0 -29 4 -29 25 0 23 4 25 40 25 22 0 40 5 40 10 0 6 -25 10
-55 10 l-55 0 0 -50z"/>
<path d="M7365 2673 c-108 -35 -168 -48 -265 -58 l-125 -12 103 -2 c98 -1 112
2 270 50 92 28 171 55 177 60 16 16 -16 8 -160 -38z"/>
<path d="M5460 2580 c0 -11 7 -20 15 -20 8 0 15 9 15 20 0 11 -7 20 -15 20 -8
0 -15 -9 -15 -20z"/>
<path d="M7325 2388 c-24 -28 -27 -38 -23 -87 4 -41 10 -59 28 -73 59 -48 132
12 104 87 -9 23 -57 46 -75 34 -33 -21 -40 0 -10 30 13 13 29 17 51 15 22 -3
30 0 28 9 -3 6 -20 13 -40 15 -30 3 -40 -2 -63 -30z m73 -70 c17 -17 15 -63
-3 -78 -8 -6 -23 -9 -35 -5 -35 11 -23 95 15 95 6 0 16 -5 23 -12z"/>
<path d="M11910 7830 c0 -11 7 -20 15 -20 8 0 15 9 15 20 0 11 -7 20 -15 20
-8 0 -15 -9 -15 -20z"/>
<path d="M9986 7819 c-54 -42 -24 -111 53 -124 40 -7 71 -27 71 -46 0 -5 -9
-18 -21 -30 -17 -17 -29 -20 -59 -15 -21 3 -45 9 -54 12 -10 4 -16 1 -16 -9 0
-20 22 -27 84 -27 69 0 96 19 96 69 0 46 -11 56 -81 79 -46 14 -54 21 -57 44
-3 22 2 29 23 34 14 3 44 4 65 0 31 -5 40 -3 40 8 0 31 -105 35 -144 5z"/>
<path d="M10200 7710 l0 -130 80 0 c64 0 80 3 80 15 0 12 -14 15 -65 15 l-65
0 0 115 c0 96 -3 115 -15 115 -13 0 -15 -21 -15 -130z"/>
<path d="M10312 7828 c3 -7 25 -14 51 -16 l47 -3 0 -115 c0 -95 3 -114 15
-114 12 0 15 19 15 114 l0 115 47 3 c26 2 48 9 51 16 3 9 -24 12 -113 12 -89
0 -116 -3 -113 -12z"/>
<path d="M10670 7710 c0 -109 2 -130 15 -130 12 0 15 13 15 60 l0 60 65 0 65
0 0 -60 c0 -53 2 -60 20 -60 19 0 20 7 20 130 0 123 -1 130 -20 130 -18 0 -20
-7 -20 -55 l0 -55 -65 0 -65 0 0 55 c0 42 -3 55 -15 55 -13 0 -15 -21 -15
-130z"/>
<path d="M11468 7833 c-10 -2 -18 -13 -18 -24 0 -16 3 -18 19 -9 26 14 74 13
89 -2 26 -26 12 -59 -53 -127 -36 -37 -65 -73 -65 -79 0 -8 27 -12 85 -12 69
0 85 3 85 15 0 12 -14 15 -62 15 l-61 0 61 64 c70 72 77 101 37 141 -24 24
-68 31 -117 18z"/>
<path d="M11713 7830 c-24 -10 -43 -39 -43 -68 0 -27 29 -50 88 -67 62 -19 78
-48 41 -78 -23 -19 -46 -19 -106 -1 -17 5 -23 2 -23 -9 0 -20 21 -27 85 -27
66 0 98 23 98 68 0 41 -27 70 -72 78 -50 9 -71 22 -71 43 0 32 26 44 80 38 38
-5 50 -3 50 7 0 24 -81 34 -127 16z"/>
<path d="M10957 7760 c-28 -23 -43 -74 -33 -115 11 -43 41 -65 90 -65 36 0 48
5 65 26 23 30 28 88 10 127 -22 48 -89 61 -132 27z m97 -32 c45 -64 -20 -162
-74 -113 -22 20 -27 83 -10 116 15 27 64 25 84 -3z"/>
<path d="M11140 7772 c0 -6 31 -125 46 -174 3 -10 14 -18 24 -18 14 0 22 15
35 70 9 39 20 72 24 75 4 2 15 -29 25 -70 14 -61 21 -75 37 -75 18 0 23 12 58
145 14 52 14 55 -4 55 -13 0 -26 -33 -41 -108 -8 -41 -20 -41 -28 0 -17 84
-27 108 -46 108 -19 0 -29 -24 -46 -108 -7 -37 -19 -34 -28 5 -21 86 -28 103
-41 103 -8 0 -15 -3 -15 -8z"/>
<path d="M11910 7680 c0 -82 3 -100 15 -100 12 0 15 18 15 100 0 82 -3 100
-15 100 -12 0 -15 -18 -15 -100z"/>
<path d="M12025 7755 c-20 -19 -25 -34 -25 -75 0 -41 5 -56 25 -75 28 -29 61
-32 93 -9 21 14 22 14 22 -5 0 -35 -29 -53 -77 -49 -28 2 -43 -1 -43 -8 0 -33
92 -32 125 1 24 23 25 31 25 135 0 91 -3 110 -15 110 -8 0 -15 -7 -15 -16 0
-14 -2 -14 -22 0 -32 23 -65 20 -93 -9z m99 -27 c32 -46 8 -118 -39 -118 -28
0 -55 34 -55 70 0 36 27 70 55 70 13 0 31 -10 39 -22z"/>
<path d="M12240 7680 c0 -82 3 -100 15 -100 12 0 15 14 15 69 0 76 13 101 54
101 37 0 46 -19 46 -97 0 -58 3 -73 15 -73 12 0 15 16 15 80 0 67 -3 83 -20
100 -24 24 -57 26 -88 4 -20 -14 -22 -14 -22 0 0 9 -7 16 -15 16 -12 0 -15
-18 -15 -100z"/>
<path d="M10520 7675 c0 -11 12 -15 45 -15 33 0 45 4 45 15 0 11 -12 15 -45
15 -33 0 -45 -4 -45 -15z"/>
<path d="M9970 7309 l0 -131 75 4 c53 2 80 8 91 20 24 24 22 77 -3 98 -20 16
-20 17 -2 39 25 31 24 47 -6 76 -21 22 -33 25 -90 25 l-65 0 0 -131z m134 79
c18 -29 -4 -53 -53 -56 l-41 -3 0 41 0 41 41 -3 c27 -2 46 -9 53 -20z m4 -100
c7 -7 12 -21 12 -33 0 -32 -20 -45 -67 -45 l-43 0 0 45 0 45 43 0 c24 0 48 -5
55 -12z"/>
<path d="M10220 7310 l0 -130 80 0 c64 0 80 3 80 15 0 12 -14 15 -65 15 l-65
0 0 115 c0 96 -3 115 -15 115 -13 0 -15 -21 -15 -130z"/>
<path d="M10420 7310 l0 -130 86 0 c64 0 85 3 82 13 -3 7 -29 13 -71 15 l-67
3 0 44 0 45 65 0 c51 0 65 3 65 15 0 12 -14 15 -65 15 l-65 0 0 40 0 40 65 0
c51 0 65 3 65 15 0 12 -16 15 -80 15 l-80 0 0 -130z"/>
<path d="M10640 7345 c0 -100 13 -147 45 -159 9 -3 37 -6 61 -6 34 0 51 6 69
25 23 23 25 31 25 130 0 87 -3 105 -15 105 -12 0 -15 -16 -15 -87 0 -99 -13
-133 -52 -147 -20 -7 -33 -5 -52 8 -25 16 -26 20 -26 121 0 98 -1 105 -20 105
-19 0 -20 -7 -20 -95z"/>
<path d="M10910 7310 c0 -109 2 -130 15 -130 12 0 15 13 15 55 l0 55 34 0 c37
0 63 -24 86 -80 8 -18 20 -30 31 -30 26 0 24 8 -14 71 -31 52 -32 55 -15 72
25 24 22 64 -7 92 -20 21 -34 25 -85 25 l-60 0 0 -130z m118 88 c7 -7 12 -21
12 -33 0 -31 -19 -45 -62 -45 l-38 0 0 45 0 45 38 0 c21 0 43 -5 50 -12z"/>
<path d="M11100 7425 c0 -11 12 -15 45 -15 l45 0 0 -115 c0 -108 1 -115 20
-115 19 0 20 7 20 115 l0 115 45 0 c33 0 45 4 45 15 0 12 -19 15 -110 15 -91
0 -110 -3 -110 -15z"/>
<path d="M9113 7231 c-24 -38 -43 -74 -43 -80 0 -6 18 -11 45 -11 41 0 45 -2
45 -25 0 -16 6 -25 15 -25 9 0 15 9 15 25 0 16 6 25 15 25 8 0 15 4 15 9 0 5
-7 11 -15 15 -11 4 -15 22 -15 71 0 89 -20 88 -77 -4z m47 -21 c0 -49 -1 -50
-30 -50 -16 0 -30 2 -30 5 0 5 54 95 57 95 2 0 3 -22 3 -50z"/>
<path d="M9260 7273 c-38 -49 -5 -108 58 -101 24 3 32 0 32 -12 0 -28 -36 -53
-66 -46 -19 5 -25 3 -22 -6 3 -7 19 -14 36 -16 23 -2 38 4 57 22 33 34 36 120
4 160 -28 35 -70 35 -99 -1z m78 -5 c28 -28 3 -84 -34 -76 -28 5 -40 33 -26
62 12 28 40 34 60 14z"/>
<path d="M9530 7280 c-25 -25 -26 -72 -2 -93 22 -20 63 -22 80 -5 9 9 12 7 12
-10 0 -35 -37 -65 -72 -58 -21 4 -28 2 -26 -7 8 -21 62 -20 91 3 32 26 44 78
28 131 -18 59 -72 78 -111 39z m74 -16 c32 -32 6 -81 -37 -70 -21 5 -27 12
-27 34 0 48 34 67 64 36z"/>
<path d="M9430 7110 c0 -11 7 -20 15 -20 8 0 15 9 15 20 0 11 -7 20 -15 20 -8
0 -15 -9 -15 -20z"/>
<path d="M1269 6705 c-61 -33 -41 -106 33 -125 60 -15 73 -23 76 -54 3 -21 -2
-28 -25 -37 -26 -10 -46 -8 -100 7 -17 5 -23 2 -23 -9 0 -20 22 -27 90 -27 51
0 61 3 79 26 12 15 21 34 21 44 0 31 -39 69 -78 76 -51 9 -72 22 -72 43 0 32
26 44 80 38 38 -5 50 -3 50 7 0 27 -88 34 -131 11z"/>
<path d="M1460 6590 l0 -130 85 0 c69 0 85 3 85 15 0 12 -14 15 -65 15 l-65 0
0 115 c0 108 -1 115 -20 115 -19 0 -20 -7 -20 -130z"/>
<path d="M1580 6705 c0 -11 12 -15 45 -15 l45 0 0 -115 c0 -108 1 -115 20
-115 19 0 20 7 20 115 l0 115 45 0 c33 0 45 4 45 15 0 12 -19 15 -110 15 -91
0 -110 -3 -110 -15z"/>
<path d="M1930 6590 c0 -123 1 -130 20 -130 18 0 20 7 20 60 l0 60 50 0 c38 0
50 4 50 15 0 11 -12 15 -50 15 l-50 0 0 40 0 40 55 0 c42 0 55 3 55 15 0 12
-15 15 -75 15 l-75 0 0 -130z"/>
<path d="M2140 6590 l0 -130 80 0 c64 0 80 3 80 15 0 12 -14 15 -65 15 l-65 0
0 115 c0 96 -3 115 -15 115 -13 0 -15 -21 -15 -130z"/>
<path d="M2340 6590 l0 -130 85 0 c69 0 85 3 85 15 0 12 -14 15 -65 15 l-65 0
0 45 0 45 60 0 c47 0 60 3 60 15 0 12 -13 15 -60 15 l-60 0 0 40 0 39 62 3
c38 2 63 8 66 16 3 9 -18 12 -82 12 l-86 0 0 -130z"/>
<path d="M2562 6616 c3 -94 6 -108 27 -130 20 -21 34 -26 76 -26 42 0 56 5 74
24 20 21 24 38 28 130 6 102 5 106 -15 106 -19 0 -20 -7 -24 -106 -3 -91 -6
-108 -22 -120 -28 -20 -63 -17 -86 6 -17 17 -20 33 -20 120 0 95 -1 100 -21
100 -21 0 -21 -4 -17 -104z"/>
<path d="M2830 6590 c0 -123 1 -130 20 -130 18 0 20 7 20 55 0 54 0 55 29 55
34 0 54 -17 82 -71 10 -21 26 -39 34 -39 8 0 15 2 15 5 0 12 -50 104 -61 110
-7 5 -3 12 10 22 14 9 21 25 21 48 0 50 -37 75 -111 75 l-59 0 0 -130z m114
94 c10 -4 16 -18 16 -39 0 -36 -13 -45 -61 -45 -28 0 -29 2 -29 45 0 43 1 45
29 45 16 0 36 -3 45 -6z"/>
<path d="M3095 6695 c-28 -28 -32 -66 -9 -89 8 -9 39 -23 69 -31 65 -19 81
-48 44 -78 -23 -18 -67 -19 -113 -1 -10 4 -16 1 -16 -9 0 -20 22 -27 84 -27
69 0 96 19 96 69 0 46 -11 56 -81 79 -57 18 -72 40 -48 69 10 12 26 14 66 10
40 -4 53 -2 53 8 0 15 -31 25 -83 25 -27 0 -45 -7 -62 -25z"/>
<path d="M1787 6563 c-17 -16 -3 -23 43 -23 38 0 50 4 50 15 0 11 -11 15 -43
15 -24 0 -47 -3 -50 -7z"/>
<path d="M1930 6191 l0 -131 69 0 c54 0 74 4 95 21 32 25 35 70 7 98 -17 17
-18 21 -5 32 18 15 18 60 0 84 -11 16 -30 20 -90 23 l-76 4 0 -131z m138 65
c4 -35 -10 -46 -60 -46 -38 0 -38 0 -38 41 l0 40 48 -3 c44 -3 47 -5 50 -32z
m-4 -82 c19 -7 21 -55 4 -72 -7 -7 -31 -12 -55 -12 l-43 0 0 45 0 45 39 0 c22
0 46 -3 55 -6z"/>
<path d="M2170 6190 l0 -130 86 0 c64 0 85 3 82 13 -3 7 -28 13 -66 15 l-62 3
0 114 c0 108 -1 115 -20 115 -19 0 -20 -7 -20 -130z"/>
<path d="M2370 6190 l0 -130 85 0 c69 0 85 3 85 15 0 12 -14 15 -65 15 l-65 0
0 45 0 45 60 0 c47 0 60 3 60 15 0 12 -13 15 -60 15 l-60 0 0 40 0 40 65 0
c51 0 65 3 65 15 0 12 -16 15 -85 15 l-85 0 0 -130z"/>
<path d="M2600 6215 c0 -99 2 -107 25 -130 19 -20 34 -25 72 -25 84 1 103 33
103 171 0 82 -1 89 -20 89 -19 0 -20 -7 -20 -100 0 -87 -3 -103 -20 -120 -23
-23 -58 -26 -86 -6 -16 12 -19 29 -22 120 -3 83 -7 106 -18 106 -11 0 -14 -21
-14 -105z"/>
<path d="M2860 6191 c0 -124 1 -131 20 -131 18 0 20 7 20 55 0 52 2 55 24 55
42 0 56 -11 82 -61 17 -34 30 -49 44 -49 20 0 20 1 4 33 -9 17 -26 45 -36 60
-19 26 -19 29 -4 46 20 22 21 71 2 96 -11 15 -30 20 -85 23 l-71 4 0 -131z
m131 78 c8 -16 8 -28 0 -45 -9 -20 -18 -24 -51 -24 l-40 0 0 45 0 45 40 0 c30
0 42 -5 51 -21z"/>
<path d="M3050 6305 c0 -11 12 -15 45 -15 l45 0 0 -115 c0 -108 1 -115 20
-115 19 0 20 7 20 115 l0 115 45 0 c33 0 45 4 45 15 0 12 -19 15 -110 15 -91
0 -110 -3 -110 -15z"/>
<path d="M12550 5450 c0 -11 7 -20 15 -20 8 0 15 9 15 20 0 11 -7 20 -15 20
-8 0 -15 -9 -15 -20z"/>
<path d="M10626 5439 c-54 -42 -24 -111 53 -124 40 -7 71 -27 71 -46 0 -5 -9
-18 -21 -30 -17 -17 -29 -20 -59 -15 -21 3 -45 9 -54 12 -10 4 -16 1 -16 -9 0
-20 22 -27 84 -27 69 0 96 19 96 69 0 46 -11 56 -81 79 -46 14 -54 21 -57 44
-3 22 2 29 23 34 14 3 44 4 65 0 31 -5 40 -3 40 8 0 31 -105 35 -144 5z"/>
<path d="M10840 5330 l0 -130 80 0 c64 0 80 3 80 15 0 12 -14 15 -65 15 l-65
0 0 115 c0 96 -3 115 -15 115 -13 0 -15 -21 -15 -130z"/>
<path d="M10952 5448 c3 -7 25 -14 51 -16 l47 -3 0 -115 c0 -95 3 -114 15
-114 12 0 15 19 15 114 l0 115 47 3 c26 2 48 9 51 16 3 9 -24 12 -113 12 -89
0 -116 -3 -113 -12z"/>
<path d="M11310 5330 c0 -109 2 -130 15 -130 12 0 15 13 15 60 l0 60 65 0 65
0 0 -60 c0 -53 2 -60 20 -60 19 0 20 7 20 130 0 123 -1 130 -20 130 -18 0 -20
-7 -20 -55 l0 -55 -65 0 -65 0 0 55 c0 42 -3 55 -15 55 -13 0 -15 -21 -15
-130z"/>
<path d="M12108 5453 c-10 -2 -18 -13 -18 -24 0 -16 3 -18 19 -9 26 14 74 13
89 -2 26 -26 12 -59 -53 -127 -36 -37 -65 -73 -65 -79 0 -8 27 -12 85 -12 69
0 85 3 85 15 0 12 -14 15 -62 15 l-61 0 61 64 c70 72 77 101 37 141 -24 24
-68 31 -117 18z"/>
<path d="M12353 5450 c-24 -10 -43 -39 -43 -68 0 -27 29 -50 88 -67 62 -19 78
-48 41 -78 -23 -19 -46 -19 -106 -1 -17 5 -23 2 -23 -9 0 -20 21 -27 85 -27
66 0 98 23 98 68 0 41 -27 70 -72 78 -50 9 -71 22 -71 43 0 32 26 44 80 38 38
-5 50 -3 50 7 0 24 -81 34 -127 16z"/>
<path d="M11597 5380 c-28 -23 -43 -74 -33 -115 11 -43 41 -65 90 -65 36 0 48
5 65 26 23 30 28 88 10 127 -22 48 -89 61 -132 27z m97 -32 c45 -64 -20 -162
-74 -113 -22 20 -27 83 -10 116 15 27 64 25 84 -3z"/>
<path d="M11780 5392 c0 -6 31 -125 46 -174 3 -10 14 -18 24 -18 14 0 22 15
35 70 9 39 20 72 24 75 4 2 15 -29 25 -70 14 -61 21 -75 37 -75 18 0 23 12 58
145 14 52 14 55 -4 55 -13 0 -26 -33 -41 -108 -8 -41 -20 -41 -28 0 -17 84
-27 108 -46 108 -19 0 -29 -24 -46 -108 -7 -37 -19 -34 -28 5 -21 86 -28 103
-41 103 -8 0 -15 -3 -15 -8z"/>
<path d="M12550 5300 c0 -82 3 -100 15 -100 12 0 15 18 15 100 0 82 -3 100
-15 100 -12 0 -15 -18 -15 -100z"/>
<path d="M12665 5375 c-20 -19 -25 -34 -25 -75 0 -41 5 -56 25 -75 28 -29 61
-32 93 -9 21 14 22 14 22 -5 0 -35 -29 -53 -77 -49 -28 2 -43 -1 -43 -8 0 -33
92 -32 125 1 24 23 25 31 25 135 0 91 -3 110 -15 110 -8 0 -15 -7 -15 -16 0
-14 -2 -14 -22 0 -32 23 -65 20 -93 -9z m99 -27 c32 -46 8 -118 -39 -118 -28
0 -55 34 -55 70 0 36 27 70 55 70 13 0 31 -10 39 -22z"/>
<path d="M12880 5300 c0 -82 3 -100 15 -100 12 0 15 14 15 69 0 76 13 101 54
101 37 0 46 -19 46 -97 0 -58 3 -73 15 -73 12 0 15 16 15 80 0 67 -3 83 -20
100 -24 24 -57 26 -88 4 -20 -14 -22 -14 -22 0 0 9 -7 16 -15 16 -12 0 -15
-18 -15 -100z"/>
<path d="M9803 5363 c-24 -9 -14 -30 12 -25 l25 4 0 -81 c0 -80 0 -81 -25 -81
-14 0 -25 -4 -25 -10 0 -6 27 -10 60 -10 33 0 60 4 60 10 0 6 -9 10 -20 10
-19 0 -20 7 -20 95 l0 95 -27 -1 c-16 0 -34 -3 -40 -6z"/>
<path d="M9985 5346 c-33 -34 -36 -120 -4 -160 24 -31 68 -35 91 -8 52 58 10
138 -62 119 -25 -6 -27 15 -3 38 11 12 25 15 45 11 21 -4 28 -2 26 7 -3 6 -19
13 -36 15 -23 2 -38 -4 -57 -22z m75 -87 c16 -28 5 -66 -21 -74 -27 -9 -49 11
-49 44 0 50 49 70 70 30z"/>
<path d="M10238 5363 c-10 -2 -18 -10 -18 -18 0 -10 7 -11 35 -3 26 9 38 8 50
-2 26 -22 17 -49 -35 -104 -27 -29 -50 -58 -50 -64 0 -8 23 -12 65 -12 37 0
65 4 65 10 0 6 -20 10 -46 10 l-45 0 45 56 c26 31 46 64 46 75 0 43 -53 68
-112 52z"/>
<path d="M11160 5295 c0 -11 12 -15 45 -15 33 0 45 4 45 15 0 11 -12 15 -45
15 -33 0 -45 -4 -45 -15z"/>
<path d="M10140 5180 c0 -11 7 -20 15 -20 8 0 15 9 15 20 0 11 -7 20 -15 20
-8 0 -15 -9 -15 -20z"/>
<path d="M10610 4929 l0 -131 75 4 c53 2 80 8 91 20 24 24 22 77 -3 98 -20 16
-20 17 -2 39 25 31 24 47 -6 76 -21 22 -33 25 -90 25 l-65 0 0 -131z m134 79
c18 -29 -4 -53 -53 -56 l-41 -3 0 41 0 41 41 -3 c27 -2 46 -9 53 -20z m4 -100
c7 -7 12 -21 12 -33 0 -32 -20 -45 -67 -45 l-43 0 0 45 0 45 43 0 c24 0 48 -5
55 -12z"/>
<path d="M10860 4930 l0 -130 80 0 c64 0 80 3 80 15 0 12 -14 15 -65 15 l-65
0 0 115 c0 96 -3 115 -15 115 -13 0 -15 -21 -15 -130z"/>
<path d="M11060 4930 l0 -130 86 0 c64 0 85 3 82 13 -3 7 -29 13 -71 15 l-67
3 0 44 0 45 65 0 c51 0 65 3 65 15 0 12 -14 15 -65 15 l-65 0 0 40 0 40 65 0
c51 0 65 3 65 15 0 12 -16 15 -80 15 l-80 0 0 -130z"/>
<path d="M11280 4965 c0 -100 13 -147 45 -159 9 -3 37 -6 61 -6 34 0 51 6 69
25 23 23 25 31 25 130 0 87 -3 105 -15 105 -12 0 -15 -16 -15 -87 0 -99 -13
-133 -52 -147 -20 -7 -33 -5 -52 8 -25 16 -26 20 -26 121 0 98 -1 105 -20 105
-19 0 -20 -7 -20 -95z"/>
<path d="M140 4070 c0 -123 1 -130 20 -130 19 0 20 7 20 130 0 123 -1 130 -20
130 -19 0 -20 -7 -20 -130z"/>
<path d="M256 4179 c-54 -42 -24 -111 53 -124 40 -7 71 -27 71 -46 0 -5 -9
-18 -21 -30 -17 -17 -29 -20 -59 -15 -21 3 -45 9 -54 12 -10 4 -16 1 -16 -9 0
-20 22 -27 84 -27 69 0 96 19 96 69 0 46 -11 56 -81 79 -46 14 -54 21 -57 44
-3 22 2 29 23 34 14 3 44 4 65 0 31 -5 40 -3 40 8 0 31 -105 35 -144 5z"/>
<path d="M470 4070 l0 -130 80 0 c64 0 80 3 80 15 0 12 -14 15 -65 15 l-65 0
0 115 c0 96 -3 115 -15 115 -13 0 -15 -21 -15 -130z"/>
<path d="M670 4070 c0 -123 1 -130 20 -130 18 0 20 7 20 55 0 54 0 55 29 55
32 0 59 -27 81 -80 8 -18 20 -30 31 -30 26 0 24 8 -14 71 -31 52 -32 55 -15
72 27 26 23 72 -8 96 -20 16 -41 21 -85 21 l-59 0 0 -130z m118 88 c7 -7 12
-21 12 -33 0 -30 -19 -45 -57 -45 -32 0 -33 1 -33 45 0 44 1 45 33 45 18 0 38
-5 45 -12z"/>
<path d="M1048 4076 c-27 -67 -48 -126 -48 -129 0 -4 7 -7 15 -7 8 0 21 16 29
35 15 34 16 35 75 35 58 0 60 -1 66 -31 7 -29 29 -48 42 -36 3 4 -16 63 -42
132 -40 105 -51 125 -69 125 -18 0 -29 -20 -68 -124z m107 -13 c6 -22 3 -23
-39 -23 -25 0 -46 2 -46 4 0 2 10 30 22 62 l22 58 17 -40 c9 -21 20 -49 24
-61z"/>
<path d="M1299 4185 c-61 -33 -41 -106 33 -125 60 -15 73 -23 76 -54 3 -21 -2
-28 -25 -37 -26 -10 -46 -8 -100 7 -17 5 -23 2 -23 -9 0 -20 22 -27 90 -27 51
0 61 3 79 26 12 15 21 34 21 44 0 31 -39 69 -78 76 -51 9 -72 22 -72 43 0 32
26 44 80 38 38 -5 50 -3 50 7 0 27 -88 34 -131 11z"/>
<path d="M1500 4070 l0 -130 85 0 c69 0 85 3 85 15 0 12 -14 15 -65 15 l-65 0
0 115 c0 108 -1 115 -20 115 -19 0 -20 -7 -20 -130z"/>
<path d="M1945 4190 c-83 -34 -100 -173 -28 -230 43 -34 163 -25 163 11 0 19
-2 19 -31 3 -41 -21 -92 -11 -119 23 -31 39 -28 116 6 149 21 22 32 25 67 22
23 -3 50 -8 60 -12 12 -6 17 -4 17 8 0 30 -86 47 -135 26z"/>
<path d="M2140 4070 c0 -109 2 -130 15 -130 13 0 15 21 15 130 0 109 -2 130
-15 130 -13 0 -15 -21 -15 -130z"/>
<path d="M2210 4185 c0 -11 12 -15 45 -15 l45 0 0 -115 c0 -108 1 -115 20
-115 19 0 20 7 20 115 l0 115 45 0 c33 0 45 4 45 15 0 12 -19 15 -110 15 -91
0 -110 -3 -110 -15z"/>
<path d="M2460 4070 c0 -123 1 -130 20 -130 19 0 20 7 20 130 0 123 -1 130
-20 130 -19 0 -20 -7 -20 -130z"/>
<path d="M2550 4185 c0 -11 18 -15 79 -17 l79 -3 -79 -99 c-43 -54 -79 -105
-79 -112 0 -11 22 -14 105 -14 85 0 105 3 105 15 0 11 -18 15 -81 17 l-81 3
81 101 c45 56 81 107 81 113 0 7 -34 11 -105 11 -85 0 -105 -3 -105 -15z"/>
<path d="M2810 4070 l0 -130 85 0 c69 0 85 3 85 15 0 12 -14 15 -65 15 l-65 0
0 45 0 44 62 3 c38 2 63 8 66 16 3 9 -14 12 -62 12 l-66 0 0 40 0 40 65 0 c51
0 65 3 65 15 0 12 -16 15 -85 15 l-85 0 0 -130z"/>
<path d="M3040 4071 c0 -124 1 -131 20 -131 18 0 20 8 22 102 l3 102 55 -102
c44 -84 58 -102 77 -102 23 0 23 1 23 130 0 108 -3 130 -15 130 -11 0 -15 -21
-17 -107 l-3 -106 -56 104 c-47 87 -60 105 -83 107 l-26 3 0 -130z"/>
<path d="M890 4035 c0 -11 12 -15 45 -15 33 0 45 4 45 15 0 11 -12 15 -45 15
-33 0 -45 -4 -45 -15z"/>
<path d="M1670 3875 c0 -12 17 -15 90 -15 73 0 90 3 90 15 0 12 -17 15 -90 15
-73 0 -90 -3 -90 -15z"/>
<path d="M2070 3670 c0 -123 1 -130 20 -130 18 0 20 7 20 55 0 52 2 55 24 55
42 0 56 -11 82 -61 17 -34 30 -49 44 -49 20 0 20 0 -1 43 -12 23 -28 50 -37
60 -14 15 -13 19 1 35 10 10 17 35 17 55 0 50 -27 67 -107 67 l-63 0 0 -130z
m131 79 c8 -16 8 -28 0 -45 -9 -20 -18 -24 -51 -24 l-40 0 0 45 0 45 40 0 c30
0 42 -5 51 -21z"/>
<path d="M2800 3778 c-84 -43 -115 -137 -71 -218 21 -39 89 -80 133 -80 37 0
98 25 98 41 0 7 -7 8 -17 4 -10 -4 -40 -10 -68 -12 -148 -12 -197 174 -65 242
55 29 130 12 164 -37 22 -31 21 -101 -2 -121 -28 -26 -32 -21 -32 41 l0 58
-44 13 c-49 14 -77 6 -96 -29 -36 -67 31 -158 90 -120 9 5 19 5 27 -1 17 -15
77 16 92 47 37 82 -23 174 -124 189 -31 5 -51 1 -85 -17z m100 -107 c24 -45 6
-91 -35 -91 -30 0 -45 19 -45 55 0 17 5 36 12 43 18 18 56 14 68 -7z"/>
<path d="M3103 3790 c-37 -15 -28 -33 12 -27 l35 6 0 -100 0 -99 -30 0 c-20 0
-30 -5 -30 -15 0 -12 15 -15 75 -15 60 0 75 3 75 15 0 10 -10 15 -30 15 l-30
0 0 115 0 115 -27 -1 c-16 0 -38 -4 -50 -9z"/>
<path d="M2328 3725 c-54 -30 -60 -126 -10 -165 34 -27 135 -25 140 2 3 15 -1
16 -30 7 -42 -12 -85 -3 -98 21 -19 36 -12 40 66 40 l76 0 -7 33 c-13 65 -77
94 -137 62z m90 -27 c26 -26 13 -38 -43 -38 -57 0 -66 8 -39 34 18 19 65 21
82 4z"/>
<path d="M2555 3728 c-34 -19 -44 -41 -45 -91 0 -68 32 -99 97 -95 62 4 69 25
8 24 -35 -1 -50 4 -61 18 -19 26 -18 76 2 105 14 19 24 22 60 19 29 -2 44 1
44 8 0 25 -69 32 -105 12z"/>
<path d="M9371 3374 c-53 -85 -53 -94 4 -94 41 0 45 -2 45 -25 0 -16 6 -25 15
-25 9 0 15 9 15 25 0 16 6 25 15 25 8 0 15 5 15 10 0 6 -7 10 -15 10 -12 0
-15 14 -15 70 0 62 -2 70 -19 70 -12 0 -33 -22 -60 -66z m49 -19 c0 -54 0 -55
-30 -55 -16 0 -30 4 -30 9 0 9 52 100 58 101 1 0 2 -25 2 -55z"/>
<path d="M9260 3250 c0 -11 7 -20 15 -20 8 0 15 9 15 20 0 11 -7 20 -15 20 -8
0 -15 -9 -15 -20z"/>
<path d="M11480 3060 c0 -11 7 -20 15 -20 8 0 15 9 15 20 0 11 -7 20 -15 20
-8 0 -15 -9 -15 -20z"/>
<path d="M11580 2945 c0 -113 2 -135 15 -135 11 0 15 12 15 47 l0 47 48 -47
c31 -31 56 -47 72 -47 23 1 20 5 -28 48 -28 26 -52 51 -52 56 0 6 21 29 48 53
37 33 43 42 27 42 -11 0 -40 -18 -65 -39 l-45 -40 -3 75 c-2 58 -6 75 -17 75
-12 0 -15 -23 -15 -135z"/>
<path d="M11790 3060 c0 -11 7 -20 15 -20 8 0 15 9 15 20 0 11 -7 20 -15 20
-8 0 -15 -9 -15 -20z"/>
<path d="M9630 2940 c0 -123 1 -130 20 -130 18 0 20 7 20 59 l0 60 52 3 c74 4
77 28 4 28 l-56 0 0 40 0 39 57 3 c34 2 58 8 61 16 3 9 -17 12 -77 12 l-81 0
0 -130z"/>
<path d="M9855 3058 c-28 -16 -35 -28 -35 -65 0 -37 23 -57 80 -68 45 -9 60
-22 60 -51 0 -34 -42 -50 -95 -36 -44 12 -50 10 -42 -13 10 -25 127 -21 155 5
47 44 17 113 -55 126 -52 9 -73 21 -73 43 0 31 26 44 80 39 36 -4 50 -2 50 7
0 24 -89 34 -125 13z"/>
<path d="M10209 3055 c-61 -33 -41 -106 33 -125 60 -15 73 -23 76 -54 3 -21
-2 -28 -25 -37 -26 -10 -46 -8 -100 7 -17 5 -23 2 -23 -9 0 -20 22 -27 90 -27
51 0 61 3 79 26 12 15 21 34 21 44 0 31 -39 69 -78 76 -51 9 -72 22 -72 43 0
32 26 44 80 38 38 -5 50 -3 50 7 0 27 -88 34 -131 11z"/>
<path d="M11110 3059 c0 -6 14 -65 32 -130 28 -108 33 -119 54 -119 20 0 24 9
44 98 12 53 25 101 28 107 3 5 18 -38 32 -95 24 -96 28 -105 50 -105 21 0 26
10 56 125 18 69 33 126 34 128 0 1 -8 2 -19 2 -15 0 -22 -14 -35 -67 -10 -38
-22 -86 -28 -108 l-11 -40 -27 105 c-22 88 -29 105 -47 108 -17 3 -23 -6 -37
-65 -9 -37 -22 -86 -28 -108 l-11 -40 -27 105 c-19 77 -31 106 -43 108 -9 2
-17 -2 -17 -9z"/>
<path d="M10410 3035 c0 -14 -4 -25 -10 -25 -5 0 -10 -7 -10 -15 0 -8 5 -15
10 -15 6 0 10 -28 10 -63 0 -79 17 -107 66 -107 24 0 34 5 34 15 0 10 -10 15
-30 15 l-30 0 0 70 0 70 30 0 c20 0 30 5 30 15 0 10 -10 15 -30 15 -25 0 -30
4 -30 25 0 18 -5 25 -20 25 -15 0 -20 -7 -20 -25z"/>
<path d="M10575 2987 c-20 -16 -28 -35 -32 -68 -4 -38 -1 -50 22 -77 23 -28
33 -32 75 -32 59 0 80 7 80 27 0 10 -6 13 -17 8 -63 -24 -123 -7 -123 35 0 18
7 20 70 20 l70 0 0 30 c0 70 -89 105 -145 57z m103 -19 c26 -26 13 -38 -43
-38 -38 0 -55 4 -55 13 0 22 22 37 55 37 17 0 36 -5 43 -12z"/>
<path d="M10770 2910 c0 -93 1 -100 20 -100 18 0 20 7 20 73 0 80 9 97 51 97
34 0 39 -14 39 -101 0 -62 2 -69 20 -69 18 0 20 7 20 73 0 77 9 97 45 97 36 0
45 -20 45 -97 0 -58 3 -73 15 -73 12 0 15 16 15 80 0 67 -3 83 -20 100 -24 24
-57 26 -88 4 -21 -15 -25 -15 -41 0 -21 19 -62 21 -80 4 -11 -10 -14 -10 -18
0 -3 6 -13 12 -24 12 -17 0 -19 -8 -19 -100z"/>
<path d="M11480 2910 c0 -82 3 -100 15 -100 12 0 15 18 15 100 0 82 -3 100
-15 100 -12 0 -15 -18 -15 -100z"/>
<path d="M11790 2910 c0 -82 3 -100 15 -100 12 0 15 18 15 100 0 82 -3 100
-15 100 -12 0 -15 -18 -15 -100z"/>
<path d="M10040 2905 c0 -11 12 -15 45 -15 33 0 45 4 45 15 0 11 -12 15 -45
15 -33 0 -45 -4 -45 -15z"/>
<path d="M9630 2550 c0 -123 1 -130 20 -130 19 0 20 7 20 130 0 123 -1 130
-20 130 -19 0 -20 -7 -20 -130z"/>
<path d="M9950 2575 c0 -99 2 -107 25 -130 18 -19 35 -25 69 -25 24 0 52 3 61
6 32 12 45 59 45 159 0 88 -1 95 -20 95 -19 0 -20 -7 -20 -105 0 -101 -1 -105
-26 -121 -19 -13 -32 -15 -52 -8 -39 14 -52 48 -52 147 0 71 -3 87 -15 87 -12
0 -15 -18 -15 -105z"/>
<path d="M9745 2595 c-20 -19 -25 -34 -25 -73 0 -70 27 -102 84 -102 72 0 113
70 82 143 -25 61 -96 78 -141 32z m97 -22 c38 -35 11 -133 -37 -133 -26 0 -55
38 -55 73 0 65 50 98 92 60z"/>
<path d="M2600 2120 c0 -123 1 -130 20 -130 19 0 20 7 20 130 0 123 -1 130
-20 130 -19 0 -20 -7 -20 -130z"/>
<path d="M2716 2229 c-54 -42 -24 -111 53 -124 40 -7 71 -27 71 -46 0 -5 -9
-18 -21 -30 -17 -17 -29 -20 -59 -15 -21 3 -45 9 -54 12 -10 4 -16 1 -16 -9 0
-20 22 -27 84 -27 69 0 96 19 96 69 0 46 -11 56 -81 79 -46 14 -54 21 -57 44
-3 22 2 29 23 34 14 3 44 4 65 0 31 -5 40 -3 40 8 0 31 -105 35 -144 5z"/>
<path d="M2930 2120 l0 -130 80 0 c64 0 80 3 80 15 0 12 -14 15 -65 15 l-65 0
0 115 c0 96 -3 115 -15 115 -13 0 -15 -21 -15 -130z"/>
<path d="M3130 2120 c0 -123 1 -130 20 -130 18 0 20 7 20 55 0 54 0 55 29 55
32 0 59 -27 81 -80 8 -18 20 -30 31 -30 26 0 24 8 -14 71 -31 52 -32 55 -15
72 27 26 23 72 -8 96 -20 16 -41 21 -85 21 l-59 0 0 -130z m118 88 c7 -7 12
-21 12 -33 0 -30 -19 -45 -57 -45 -32 0 -33 1 -33 45 0 44 1 45 33 45 18 0 38
-5 45 -12z"/>
<path d="M3519 2235 c-61 -33 -41 -106 33 -125 60 -15 73 -23 76 -54 3 -21 -2
-28 -25 -37 -26 -10 -46 -8 -100 7 -17 5 -23 2 -23 -9 0 -20 22 -27 90 -27 51
0 61 3 79 26 12 15 21 34 21 44 0 31 -39 69 -78 76 -51 9 -72 22 -72 43 0 32
26 44 80 38 38 -5 50 -3 50 7 0 27 -88 34 -131 11z"/>
<path d="M3720 2120 l0 -130 85 0 c69 0 85 3 85 15 0 12 -14 15 -65 15 l-65 0
0 45 0 44 62 3 c38 2 63 8 66 16 3 9 -14 12 -62 12 l-66 0 0 40 0 40 65 0 c51
0 65 3 65 15 0 12 -16 15 -85 15 l-85 0 0 -130z"/>
<path d="M3950 2120 c0 -123 1 -130 20 -130 18 0 20 8 22 103 l3 102 29 -78
c24 -65 32 -78 49 -75 15 2 27 23 51 88 l31 85 3 -112 c2 -91 5 -113 17 -113
12 0 15 22 15 131 l0 130 -26 -3 c-24 -3 -31 -13 -59 -88 l-32 -85 -17 39 c-9
22 -24 61 -33 88 -15 42 -21 48 -45 48 l-28 0 0 -130z"/>
<path d="M4260 2120 l0 -130 85 0 c69 0 85 3 85 15 0 12 -14 15 -65 15 l-65 0
0 115 c0 108 -1 115 -20 115 -19 0 -20 -7 -20 -130z"/>
<path d="M4460 2120 l0 -130 85 0 c69 0 85 3 85 15 0 12 -14 15 -65 15 l-65 0
0 45 0 44 62 3 c38 2 63 8 66 16 3 9 -14 12 -62 12 l-66 0 0 40 0 40 65 0 c51
0 65 3 65 15 0 12 -16 15 -85 15 l-85 0 0 -130z"/>
<path d="M4720 2190 l41 -60 -39 -57 c-56 -84 -56 -83 -34 -83 13 0 31 18 52
50 18 28 36 50 40 50 4 0 22 -22 40 -50 20 -32 39 -50 51 -50 23 0 20 5 -34
85 l-34 50 38 57 c44 65 45 68 22 68 -10 0 -30 -20 -46 -45 -16 -25 -32 -45
-35 -45 -4 0 -20 20 -35 45 -18 28 -36 45 -48 45 -17 0 -14 -8 21 -60z"/>
<path d="M3350 2085 c0 -11 12 -15 45 -15 33 0 45 4 45 15 0 11 -12 15 -45 15
-33 0 -45 -4 -45 -15z"/>
<path d="M3690 1730 c0 -123 1 -130 20 -130 18 0 20 7 20 55 0 52 2 55 24 55
42 0 56 -11 82 -61 17 -34 30 -49 44 -49 20 0 20 0 -1 43 -12 23 -28 50 -37
60 -14 15 -13 19 1 35 10 10 17 35 17 55 0 50 -27 67 -107 67 l-63 0 0 -130z
m131 79 c8 -16 8 -28 0 -45 -9 -20 -18 -24 -51 -24 l-40 0 0 45 0 45 40 0 c30
0 42 -5 51 -21z"/>
<path d="M4420 1838 c-84 -43 -115 -137 -71 -218 21 -39 89 -80 133 -80 37 0
98 25 98 41 0 7 -7 8 -17 4 -10 -4 -40 -10 -68 -12 -148 -12 -197 174 -65 242
55 29 130 12 164 -37 22 -31 21 -101 -2 -121 -28 -26 -32 -21 -32 41 l0 58
-44 13 c-49 14 -77 6 -96 -29 -36 -67 31 -158 90 -120 9 5 19 5 27 -1 17 -15
77 16 92 47 37 82 -23 174 -124 189 -31 5 -51 1 -85 -17z m100 -107 c24 -45 6
-91 -35 -91 -30 0 -45 19 -45 55 0 17 5 36 12 43 18 18 56 14 68 -7z"/>
<path d="M4723 1850 c-37 -15 -28 -33 12 -27 l35 6 0 -100 0 -99 -30 0 c-20 0
-30 -5 -30 -15 0 -12 15 -15 75 -15 60 0 75 3 75 15 0 10 -10 15 -30 15 l-30
0 0 115 0 115 -27 -1 c-16 0 -38 -4 -50 -9z"/>
<path d="M7430 1680 c0 -123 1 -130 20 -130 19 0 20 7 20 130 0 123 -1 130
-20 130 -19 0 -20 -7 -20 -130z"/>
<path d="M7546 1789 c-54 -42 -24 -111 53 -124 40 -7 71 -27 71 -46 0 -5 -9
-18 -21 -30 -17 -17 -29 -20 -59 -15 -21 3 -45 9 -54 12 -10 4 -16 1 -16 -9 0
-20 22 -27 84 -27 69 0 96 19 96 69 0 46 -11 56 -81 79 -46 14 -54 21 -57 44
-3 22 2 29 23 34 14 3 44 4 65 0 31 -5 40 -3 40 8 0 31 -105 35 -144 5z"/>
<path d="M7760 1680 l0 -130 80 0 c64 0 80 3 80 15 0 12 -14 15 -65 15 l-65 0
0 115 c0 96 -3 115 -15 115 -13 0 -15 -21 -15 -130z"/>
<path d="M7960 1680 c0 -123 1 -130 20 -130 18 0 20 7 20 55 0 54 0 55 29 55
32 0 59 -27 81 -80 8 -18 20 -30 31 -30 26 0 24 8 -14 71 -31 52 -32 55 -15
72 27 26 23 72 -8 96 -20 16 -41 21 -85 21 l-59 0 0 -130z m118 88 c7 -7 12
-21 12 -33 0 -30 -19 -45 -57 -45 -32 0 -33 1 -33 45 0 44 1 45 33 45 18 0 38
-5 45 -12z"/>
<path d="M8290 1805 c0 -3 14 -62 31 -130 29 -114 33 -125 54 -125 21 0 25 11
51 113 l28 112 18 -75 c39 -154 37 -150 61 -150 21 0 25 11 51 118 16 64 31
123 34 130 2 7 -4 12 -15 12 -16 0 -23 -16 -43 -100 -13 -55 -26 -100 -30
-100 -3 0 -17 44 -31 98 -21 80 -29 98 -46 100 -17 3 -23 -6 -37 -65 -9 -37
-22 -86 -28 -108 l-11 -40 -27 105 c-19 77 -31 106 -43 108 -9 2 -17 1 -17 -3z"/>
<path d="M8670 1680 l0 -130 80 0 c64 0 80 3 80 15 0 12 -14 15 -65 15 l-65 0
0 115 c0 96 -3 115 -15 115 -13 0 -15 -21 -15 -130z"/>
<path d="M8898 1686 c-27 -67 -48 -126 -48 -129 0 -4 7 -7 15 -7 8 0 21 16 29
35 15 34 16 35 75 35 58 0 60 -1 66 -31 7 -29 29 -48 42 -36 3 4 -16 63 -42
132 -40 105 -51 125 -69 125 -18 0 -29 -20 -68 -124z m107 -13 c6 -22 3 -23
-39 -23 -25 0 -46 2 -46 4 0 2 10 30 22 62 l22 58 17 -40 c9 -21 20 -49 24
-61z"/>
<path d="M9149 1795 c-61 -33 -41 -106 33 -125 60 -15 73 -23 76 -54 3 -21 -2
-28 -25 -37 -26 -10 -46 -8 -100 7 -17 5 -23 2 -23 -9 0 -20 22 -27 90 -27 51
0 61 3 79 26 12 15 21 34 21 44 0 31 -39 69 -78 76 -51 9 -72 22 -72 43 0 32
26 44 80 38 38 -5 50 -3 50 7 0 27 -88 34 -131 11z"/>
<path d="M9350 1680 l0 -130 85 0 c69 0 85 3 85 15 0 12 -14 15 -65 15 l-65 0
0 115 c0 108 -1 115 -20 115 -19 0 -20 -7 -20 -130z"/>
<path d="M3948 1785 c-54 -30 -60 -126 -10 -165 34 -27 135 -25 140 2 3 15 -1
16 -30 7 -42 -12 -85 -3 -98 21 -19 36 -12 40 66 40 l76 0 -7 33 c-13 65 -77
94 -137 62z m90 -27 c26 -26 13 -38 -43 -38 -57 0 -66 8 -39 34 18 19 65 21
82 4z"/>
<path d="M4175 1788 c-34 -19 -44 -41 -45 -91 0 -68 32 -99 97 -95 62 4 69 25
8 24 -35 -1 -50 4 -61 18 -19 26 -18 76 2 105 14 19 24 22 60 19 29 -2 44 1
44 8 0 25 -69 32 -105 12z"/>
<path d="M8180 1645 c0 -11 12 -15 45 -15 33 0 45 4 45 15 0 11 -12 15 -45 15
-33 0 -45 -4 -45 -15z"/>
<path d="M7430 1281 c0 -124 1 -131 20 -131 17 0 20 7 20 49 l0 48 45 6 c59 6
85 30 85 77 0 60 -17 74 -99 78 l-71 4 0 -131z m134 67 c13 -37 -14 -68 -61
-68 l-33 0 0 51 0 50 42 -3 c36 -3 44 -7 52 -30z"/>
<path d="M7825 1400 c-83 -34 -100 -173 -28 -230 43 -34 163 -25 163 11 0 19
-2 19 -31 3 -41 -21 -92 -11 -119 23 -31 39 -28 116 6 149 21 22 32 25 67 22
23 -3 50 -8 60 -12 12 -6 17 -4 17 8 0 30 -86 47 -135 26z"/>
<path d="M7620 1245 c0 -11 12 -15 45 -15 33 0 45 4 45 15 0 11 -12 15 -45 15
-33 0 -45 -4 -45 -15z"/>
<path d="M3567 533 c-15 -34 -21 -68 -21 -113 0 -72 32 -160 57 -160 13 0 12
8 -4 50 -11 29 -19 75 -19 110 0 35 8 81 19 110 16 42 17 50 4 50 -8 0 -24
-21 -36 -47z"/>
<path d="M4552 533 c29 -64 29 -161 0 -226 -28 -62 -3 -66 30 -5 18 34 23 60
23 118 0 58 -5 84 -23 118 -33 61 -58 57 -30 -5z"/>
<path d="M7200 560 c0 -11 7 -20 15 -20 8 0 15 9 15 20 0 11 -7 20 -15 20 -8
0 -15 -9 -15 -20z"/>
<path d="M9670 445 c0 -128 1 -135 20 -135 17 0 20 7 20 47 l0 47 48 -47 c26
-26 56 -47 67 -47 15 0 7 12 -34 54 l-52 53 53 47 c42 36 48 46 32 46 -12 0
-42 -18 -68 -41 l-46 -41 0 76 c0 69 -2 76 -20 76 -19 0 -20 -7 -20 -135z"/>
<path d="M10850 560 c0 -11 7 -20 15 -20 8 0 15 9 15 20 0 11 -7 20 -15 20 -8
0 -15 -9 -15 -20z"/>
<path d="M10978 569 c-10 -5 -18 -21 -18 -34 0 -18 -5 -25 -20 -25 -11 0 -20
-5 -20 -11 0 -6 9 -13 20 -16 18 -5 20 -14 20 -89 0 -68 3 -84 15 -84 12 0 15
16 15 85 0 84 0 85 25 85 16 0 25 6 25 15 0 9 -9 15 -25 15 -18 0 -25 5 -25
20 0 16 7 20 30 20 20 0 30 5 30 15 0 17 -45 20 -72 4z"/>
<path d="M11080 560 c0 -11 7 -20 15 -20 8 0 15 9 15 20 0 11 -7 20 -15 20 -8
0 -15 -9 -15 -20z"/>
<path d="M12190 535 c0 -42 -2 -45 -19 -35 -36 19 -68 11 -96 -22 -23 -28 -27
-39 -23 -80 6 -61 30 -88 78 -88 20 0 41 5 48 12 9 9 12 9 12 0 0 -7 9 -12 20
-12 19 0 20 7 20 135 0 128 -1 135 -20 135 -17 0 -20 -7 -20 -45z m-10 -74
c15 -30 12 -92 -7 -113 -21 -24 -46 -23 -69 3 -21 24 -24 90 -4 114 18 22 67
19 80 -4z"/>
<path d="M12510 445 c0 -128 1 -135 20 -135 19 0 20 7 20 135 0 128 -1 135
-20 135 -19 0 -20 -7 -20 -135z"/>
<path d="M1809 555 c-61 -33 -41 -106 33 -125 60 -15 73 -23 76 -54 3 -21 -2
-28 -25 -37 -26 -10 -46 -8 -100 7 -17 5 -23 2 -23 -9 0 -20 22 -27 90 -27 51
0 61 3 79 26 12 15 21 34 21 44 0 31 -39 69 -78 76 -51 9 -72 22 -72 43 0 32
26 44 80 38 38 -5 50 -3 50 7 0 27 -88 34 -131 11z"/>
<path d="M2010 440 c0 -123 1 -130 20 -130 18 0 20 7 20 60 l0 60 65 0 65 0 0
-60 c0 -47 3 -60 15 -60 13 0 15 21 15 130 0 109 -2 130 -15 130 -12 0 -15
-13 -15 -55 l0 -55 -65 0 -65 0 0 55 c0 48 -2 55 -20 55 -19 0 -20 -7 -20
-130z"/>
<path d="M2510 440 l0 -130 70 0 c62 0 74 3 95 25 32 31 32 68 1 93 -24 18
-24 19 -5 35 27 24 24 62 -7 86 -21 16 -41 21 -90 21 l-64 0 0 -130z m138 72
c5 -34 -15 -52 -59 -52 -39 0 -39 0 -39 41 l0 40 48 -3 c40 -3 47 -6 50 -26z
m0 -94 c7 -7 12 -21 12 -33 0 -32 -20 -45 -67 -45 l-43 0 0 45 0 45 43 0 c24
0 48 -5 55 -12z"/>
<path d="M2760 440 l0 -130 85 0 c69 0 85 3 85 15 0 12 -14 15 -70 15 l-70 0
0 45 0 45 65 0 c51 0 65 3 65 15 0 12 -14 15 -65 15 l-65 0 0 40 0 39 67 3
c42 2 68 8 71 16 3 9 -18 12 -82 12 l-86 0 0 -130z"/>
<path d="M2990 440 c0 -109 2 -130 15 -130 12 0 15 13 15 56 l0 55 38 -3 c33
-3 40 -9 67 -55 18 -32 37 -52 48 -53 16 0 16 3 -4 43 -12 23 -29 50 -37 60
-11 12 -13 21 -6 25 21 13 34 52 28 77 -10 39 -41 55 -106 55 l-58 0 0 -130z
m118 88 c7 -7 12 -21 12 -33 0 -31 -19 -45 -62 -45 l-38 0 0 45 0 45 38 0 c21
0 43 -5 50 -12z"/>
<path d="M3172 558 c3 -7 25 -14 51 -16 l47 -3 0 -115 c0 -95 3 -114 15 -114
12 0 15 19 15 114 l0 115 47 3 c26 2 48 9 51 16 3 9 -24 12 -113 12 -89 0
-116 -3 -113 -12z"/>
<path d="M3744 560 c-54 -22 -85 -103 -65 -170 16 -52 53 -80 107 -80 55 0 86
15 107 50 22 36 22 128 1 158 -31 44 -98 63 -150 42z m105 -44 c61 -65 19
-186 -65 -186 -9 0 -29 13 -45 29 -23 23 -29 38 -29 71 0 43 21 95 42 103 33
13 75 6 97 -17z"/>
<path d="M6410 441 c0 -124 1 -131 20 -131 17 0 20 7 20 49 l0 48 45 6 c59 6
85 30 85 77 0 60 -17 74 -99 78 l-71 4 0 -131z m134 67 c13 -37 -14 -68 -61
-68 l-33 0 0 51 0 50 42 -3 c36 -3 44 -7 52 -30z"/>
<path d="M8085 558 c-28 -16 -35 -28 -35 -65 0 -37 23 -57 80 -68 45 -9 60
-22 60 -51 0 -34 -42 -50 -95 -36 -44 12 -50 10 -42 -13 10 -25 127 -21 155 5
47 44 17 113 -55 126 -52 9 -73 21 -73 43 0 31 26 44 80 39 36 -4 50 -2 50 7
0 24 -89 34 -125 13z"/>
<path d="M8333 554 c-56 -28 -78 -108 -49 -178 19 -47 51 -66 109 -66 42 0 54
5 83 34 30 30 34 40 34 85 0 63 -20 105 -60 126 -37 19 -76 19 -117 -1z m114
-36 c28 -31 36 -71 23 -117 -12 -45 -26 -59 -68 -67 -26 -5 -36 -1 -62 24 -26
26 -30 38 -30 82 0 41 5 56 25 75 32 33 84 34 112 3z"/>
<path d="M8530 555 c0 -11 12 -15 50 -15 l50 0 0 -115 c0 -96 3 -115 15 -115
12 0 15 19 15 114 l0 115 47 3 c26 2 48 9 51 16 3 9 -24 12 -112 12 -96 0
-116 -3 -116 -15z"/>
<path d="M8821 548 c-13 -35 -82 -211 -88 -225 -3 -8 3 -13 15 -13 14 0 24 10
32 35 11 35 12 35 70 35 58 0 59 0 70 -35 8 -24 18 -35 31 -35 18 0 18 1 -1
53 -71 189 -77 202 -99 205 -14 2 -24 -4 -30 -20z m57 -85 l20 -53 -48 0 -49
0 22 60 c12 32 25 56 29 52 3 -4 15 -31 26 -59z"/>
<path d="M9120 535 c0 -14 -4 -25 -10 -25 -5 0 -10 -7 -10 -15 0 -8 5 -15 10
-15 6 0 10 -28 10 -63 0 -79 17 -107 66 -107 24 0 34 5 34 15 0 10 -10 15 -30
15 l-30 0 0 70 0 70 30 0 c20 0 30 5 30 15 0 10 -10 15 -30 15 -25 0 -30 4
-30 25 0 18 -5 25 -20 25 -15 0 -20 -7 -20 -25z"/>
<path d="M2280 432 c0 -97 14 -122 69 -122 20 0 42 5 49 12 9 9 12 9 12 0 0
-7 9 -12 20 -12 19 0 20 7 20 100 0 93 -1 100 -20 100 -18 0 -20 -7 -20 -75 0
-68 -2 -76 -25 -91 -30 -19 -61 -11 -69 19 -3 12 -6 50 -6 85 0 48 -3 62 -15
62 -12 0 -15 -15 -15 -78z"/>
<path d="M3970 427 c0 -69 3 -87 18 -100 21 -19 64 -22 93 -7 13 7 19 7 19 0
0 -5 7 -10 15 -10 12 0 15 18 15 100 0 82 -3 100 -15 100 -12 0 -15 -14 -15
-70 0 -57 -4 -74 -20 -90 -23 -23 -33 -24 -61 -10 -16 9 -19 22 -19 90 0 64
-3 80 -15 80 -12 0 -15 -16 -15 -83z"/>
<path d="M4200 410 c0 -82 3 -100 15 -100 12 0 15 14 15 69 0 77 13 101 56
101 15 0 24 6 24 15 0 19 -30 19 -58 -1 -20 -14 -22 -14 -22 0 0 9 -7 16 -15
16 -12 0 -15 -18 -15 -100z"/>
<path d="M4358 498 c-46 -37 -21 -91 47 -104 42 -8 55 -28 32 -52 -14 -13 -24
-14 -62 -5 -40 9 -46 8 -43 -6 2 -12 17 -17 55 -19 66 -4 93 10 93 47 0 34
-13 46 -66 63 -28 9 -39 19 -39 33 0 17 7 20 48 20 28 0 47 4 47 11 0 25 -84
34 -112 12z"/>
<path d="M6620 410 c0 -93 1 -100 20 -100 18 0 20 7 20 73 0 80 9 97 52 97 18
0 28 5 28 15 0 17 -32 20 -61 5 -13 -7 -19 -7 -19 0 0 5 -9 10 -20 10 -19 0
-20 -7 -20 -100z"/>
<path d="M6802 500 c-13 -6 -30 -26 -38 -46 -33 -78 10 -144 92 -144 51 0 74
8 74 25 0 9 -10 10 -44 2 -37 -8 -49 -7 -70 7 -14 9 -26 25 -26 36 0 18 7 20
74 20 l74 0 -9 38 c-14 62 -64 87 -127 62z m86 -32 c26 -26 13 -38 -43 -38
-57 0 -66 8 -39 34 18 19 65 21 82 4z"/>
<path d="M6971 498 c0 -7 15 -51 33 -98 29 -73 37 -85 57 -85 20 0 28 11 56
85 36 96 39 110 19 110 -9 0 -26 -33 -44 -82 l-30 -83 -15 35 c-7 19 -22 56
-31 83 -10 26 -24 47 -32 47 -8 0 -14 -6 -13 -12z"/>
<path d="M7200 410 c0 -82 3 -100 15 -100 12 0 15 18 15 100 0 82 -3 100 -15
100 -12 0 -15 -18 -15 -100z"/>
<path d="M7334 498 c-46 -22 -60 -115 -23 -162 17 -21 29 -26 65 -26 69 0 104
48 90 125 -12 60 -75 91 -132 63z m86 -37 c17 -33 12 -96 -10 -116 -54 -49
-119 49 -74 113 20 28 69 30 84 3z"/>
<path d="M7520 432 c0 -97 14 -122 69 -122 20 0 42 5 49 12 9 9 12 9 12 0 0
-7 9 -12 20 -12 19 0 20 7 20 100 0 93 -1 100 -20 100 -18 0 -20 -7 -20 -75 0
-68 -2 -76 -25 -91 -30 -19 -61 -11 -69 19 -3 12 -6 50 -6 85 0 48 -3 62 -15
62 -12 0 -15 -15 -15 -78z"/>
<path d="M7762 494 c-22 -15 -29 -48 -14 -72 5 -7 28 -18 53 -25 33 -9 45 -18
47 -35 4 -27 -34 -39 -79 -23 -27 9 -30 8 -27 -7 2 -13 16 -18 59 -20 45 -2
58 1 74 18 31 34 11 71 -50 91 -37 12 -50 21 -50 35 0 16 7 19 53 19 34 -1 52
3 52 11 0 27 -83 33 -118 8z"/>
<path d="M9288 503 c-10 -2 -18 -10 -18 -16 0 -8 16 -11 49 -9 42 3 51 1 61
-17 10 -20 8 -21 -27 -21 -79 0 -123 -53 -89 -104 13 -20 25 -26 54 -26 21 0
44 6 51 13 11 10 14 10 18 0 3 -7 12 -13 20 -13 13 0 15 14 11 81 -3 70 -6 83
-27 100 -22 18 -63 23 -103 12z m98 -109 c-3 -9 -6 -20 -6 -25 0 -5 -11 -16
-25 -25 -34 -22 -65 -10 -65 26 0 32 9 38 64 39 31 1 37 -2 32 -15z"/>
<path d="M9490 490 c-35 -35 -19 -72 37 -91 66 -21 80 -42 40 -60 -17 -8 -35
-8 -61 -1 -33 9 -37 9 -34 -6 5 -24 109 -30 132 -7 38 39 10 85 -61 100 -65
13 -42 60 27 53 26 -2 40 1 40 8 0 30 -91 33 -120 4z"/>
<path d="M10022 494 c-44 -31 -20 -85 45 -99 17 -3 37 -13 44 -22 11 -13 10
-18 -6 -29 -22 -17 -44 -18 -80 -4 -23 9 -26 8 -23 -7 2 -14 15 -19 57 -21 60
-3 91 15 91 53 0 29 -17 43 -71 58 -33 10 -44 18 -44 32 0 17 7 20 53 20 34
-1 52 3 52 11 0 27 -83 33 -118 8z"/>
<path d="M10200 375 c0 -113 2 -135 15 -135 11 0 15 12 15 45 0 42 2 45 19 35
84 -44 159 46 115 137 -24 49 -64 64 -105 41 -24 -14 -29 -15 -29 -3 0 8 -7
15 -15 15 -13 0 -15 -22 -15 -135z m124 89 c47 -46 -8 -161 -60 -126 -34 22
-41 94 -13 129 15 18 54 17 73 -3z"/>
<path d="M10451 484 c-27 -22 -31 -32 -31 -75 0 -40 5 -55 25 -75 22 -22 32
-25 82 -22 44 2 59 7 61 19 3 14 -2 15 -37 6 -36 -10 -44 -8 -68 10 -16 11
-29 28 -31 37 -3 14 7 16 72 16 75 0 76 0 76 26 0 15 -12 38 -29 55 -37 37
-79 38 -120 3z m107 -31 l14 -23 -61 0 c-33 0 -61 3 -61 7 0 3 8 15 17 25 23
25 71 20 91 -9z"/>
<path d="M10669 481 c-24 -24 -29 -38 -29 -76 0 -65 31 -95 100 -95 38 0 50 4
50 15 0 13 -7 15 -34 9 -29 -5 -39 -2 -62 21 -22 22 -25 33 -21 62 9 53 24 65
74 61 43 -3 60 13 27 26 -37 14 -76 6 -105 -23z"/>
<path d="M10850 410 c0 -82 3 -100 15 -100 12 0 15 18 15 100 0 82 -3 100 -15
100 -12 0 -15 -18 -15 -100z"/>
<path d="M11080 410 c0 -82 3 -100 15 -100 12 0 15 18 15 100 0 82 -3 100 -15
100 -12 0 -15 -18 -15 -100z"/>
<path d="M11208 495 c-53 -29 -58 -125 -9 -169 22 -20 112 -19 119 2 3 9 -6
11 -36 6 -52 -8 -82 19 -82 74 0 54 26 76 80 69 29 -4 40 -1 40 8 0 27 -68 33
-112 10z"/>
<path d="M11490 410 c0 -82 3 -100 15 -100 12 0 15 14 15 63 0 72 18 107 55
107 33 0 45 -27 45 -104 0 -52 3 -66 15 -66 12 0 15 14 15 69 0 79 15 104 59
99 25 -3 26 -5 29 -85 3 -76 4 -83 23 -83 20 0 21 5 18 79 -3 60 -9 84 -23
100 -24 26 -67 27 -90 2 -17 -19 -18 -19 -37 0 -23 23 -57 24 -87 3 -20 -14
-22 -14 -22 0 0 9 -7 16 -15 16 -12 0 -15 -18 -15 -100z"/>
<path d="M11859 481 c-39 -40 -41 -109 -4 -146 24 -25 73 -33 110 -19 23 9 45
57 45 99 0 48 -45 95 -90 95 -22 0 -41 -9 -61 -29z m101 -16 c20 -24 17 -90
-4 -114 -24 -27 -48 -27 -72 0 -22 24 -25 89 -5 113 17 20 65 21 81 1z"/>
<path d="M12309 481 c-33 -34 -39 -83 -14 -131 17 -34 42 -43 106 -38 32 2 45
8 47 21 3 15 0 16 -23 7 -41 -16 -64 -12 -90 15 -39 38 -32 45 50 45 l75 0 0
29 c0 16 -10 39 -25 55 -34 37 -87 36 -126 -3z m105 -17 c27 -27 18 -34 -45
-34 -61 0 -63 2 -36 38 13 17 62 15 81 -4z"/>
<path d="M12620 490 c-38 -38 -17 -81 47 -95 17 -3 37 -13 44 -22 11 -13 10
-18 -6 -29 -22 -17 -44 -18 -80 -4 -23 9 -26 8 -23 -7 5 -26 103 -31 129 -7
42 38 14 84 -58 99 -38 8 -46 16 -37 40 5 13 17 16 55 13 32 -2 49 1 49 8 0
30 -91 33 -120 4z"/>
<path d="M730 440 c0 -6 132 -10 375 -10 243 0 375 4 375 10 0 6 -132 10 -375
10 -243 0 -375 -4 -375 -10z"/>
<path d="M9870 405 c0 -11 12 -15 45 -15 33 0 45 4 45 15 0 11 -12 15 -45 15
-33 0 -45 -4 -45 -15z"/>
</g>
</svg>
